<svg width="40" height="40" viewBox="0 0 40 40" fill="none" xmlns="http://www.w3.org/2000/svg">
<path d="M34.1406 0H5.85938C2.62852 0 0 2.5628 0 5.71289V33.2871C0 36.4372 2.62852 39 5.85938 39H34.1406C37.3715 39 40 36.4372 40 33.2871V5.71289C40 2.5628 37.3715 0 34.1406 0ZM23.5156 23.9941V36.7148H21.1719V23.9941C21.1719 23.3631 20.6472 22.8516 20 22.8516H16.4844V20.5664H20C20.6472 20.5664 21.1719 20.0548 21.1719 19.4238V14.8535C21.1719 11.7034 23.8004 9.14062 27.0312 9.14062H30.5469V11.4258H27.0312C25.0927 11.4258 23.5156 12.9635 23.5156 14.8535V19.4238C23.5156 20.0548 24.0403 20.5664 24.6875 20.5664H30.2178L29.6319 22.8516H24.6875C24.0403 22.8516 23.5156 23.3631 23.5156 23.9941ZM37.6562 33.2871C37.6562 35.1772 36.0791 36.7148 34.1406 36.7148H25.8594V25.1367H30.5469C31.0846 25.1367 31.5534 24.7799 31.6838 24.2713L32.8556 19.7009C33.0406 18.9797 32.4798 18.2812 31.7188 18.2812H25.8594V14.8535C25.8594 14.2235 26.3851 13.7109 27.0312 13.7109H31.7188C32.3659 13.7109 32.8906 13.1994 32.8906 12.5684V7.99805C32.8906 7.36704 32.3659 6.85547 31.7188 6.85547H27.0312C22.508 6.85547 18.8281 10.4434 18.8281 14.8535V18.2812H15.3125C14.6653 18.2812 14.1406 18.7928 14.1406 19.4238V23.9941C14.1406 24.6251 14.6653 25.1291 15.3125 25.1291H18.8281V36.7148H5.85938C3.92086 36.7148 2.34375 35.1772 2.34375 33.2871V5.71289C2.34375 3.82284 3.92086 2.28516 5.85938 2.28516H34.1406C36.0791 2.28516 37.6562 3.82284 37.6562 5.71289V33.2871Z" fill="white"/>
</svg>
