<svg width="218" height="140" viewBox="0 0 218 140" fill="none" xmlns="http://www.w3.org/2000/svg">
<path d="M42.3352 102C42.3352 101.874 42.3282 101.741 42.3142 101.601C42.3002 101.461 42.2722 101.335 42.2302 101.223C42.1882 101.097 42.1252 100.992 42.0412 100.908C41.9712 100.824 41.8732 100.782 41.7472 100.782C41.6772 100.782 41.5792 100.817 41.4532 100.887C41.3412 100.957 41.2082 101.048 41.0542 101.16C40.7742 101.384 40.4102 101.622 39.9622 101.874C39.5282 102.112 39.0102 102.231 38.4082 102.231C37.5822 102.231 36.8332 102.049 36.1612 101.685C35.5032 101.307 34.9432 100.803 34.4812 100.173C34.0192 99.543 33.6622 98.808 33.4102 97.968C33.1582 97.114 33.0322 96.211 33.0322 95.259C33.0322 94.307 33.1512 93.383 33.3892 92.487C33.6412 91.577 33.9982 90.779 34.4602 90.093C34.9222 89.393 35.4892 88.833 36.1612 88.413C36.8332 87.993 37.6032 87.783 38.4712 87.783C38.8492 87.783 39.1852 87.846 39.4792 87.972C39.7732 88.084 40.0462 88.21 40.2982 88.35C40.5502 88.49 40.7882 88.623 41.0122 88.749C41.2362 88.861 41.4742 88.917 41.7262 88.917C41.8942 88.917 42.0202 88.875 42.1042 88.791C42.1882 88.693 42.2442 88.546 42.2722 88.35H42.6502V92.592H42.2302C42.2022 92.088 42.0902 91.584 41.8942 91.08C41.7122 90.562 41.4742 90.1 41.1802 89.694C40.8862 89.274 40.5362 88.938 40.1302 88.686C39.7382 88.42 39.3182 88.287 38.8702 88.287C38.4222 88.287 38.0372 88.406 37.7152 88.644C37.3932 88.882 37.1202 89.197 36.8962 89.589C36.6722 89.981 36.4902 90.429 36.3502 90.933C36.2242 91.423 36.1192 91.927 36.0352 92.445C35.9652 92.949 35.9162 93.453 35.8882 93.957C35.8742 94.447 35.8672 94.881 35.8672 95.259C35.8672 95.973 35.9092 96.701 35.9932 97.443C36.0772 98.171 36.2452 98.843 36.4972 99.459C36.7492 100.061 37.1062 100.558 37.5682 100.95C38.0302 101.328 38.6392 101.517 39.3952 101.517C39.8012 101.517 40.1722 101.37 40.5082 101.076C40.8442 100.768 41.1382 100.39 41.3902 99.942C41.6422 99.48 41.8452 98.99 41.9992 98.472C42.1672 97.94 42.2792 97.45 42.3352 97.002H42.6502V102H42.3352ZM44.2626 101.643C44.5706 101.643 44.8226 101.622 45.0186 101.58C45.2146 101.538 45.3756 101.461 45.5016 101.349C45.6276 101.237 45.7326 101.076 45.8166 100.866C45.9006 100.642 45.9986 100.362 46.1106 100.026C46.7126 97.982 47.3216 95.945 47.9376 93.915C48.5536 91.871 49.1696 89.827 49.7856 87.783H50.4996L54.9726 101.643H55.8966V102H50.8776V101.643H52.2846L50.9406 97.422H47.2866L47.1396 97.842C47.0696 98.052 46.9856 98.318 46.8876 98.64C46.7896 98.962 46.6916 99.284 46.5936 99.606C46.5096 99.928 46.4326 100.222 46.3626 100.488C46.2926 100.754 46.2576 100.936 46.2576 101.034C46.2576 101.202 46.3206 101.328 46.4466 101.412C46.5866 101.496 46.7476 101.559 46.9296 101.601C47.1116 101.629 47.2936 101.643 47.4756 101.643C47.6716 101.643 47.8256 101.643 47.9376 101.643H47.9796V102H44.2626V101.643ZM47.3916 97.065H50.8356L49.0716 91.563L47.3916 97.065ZM60.2884 101.643H61.5694V102H56.8234V101.643H57.9784V88.35H56.8234V87.993H62.8924C63.3544 87.993 63.8094 88.049 64.2574 88.161C64.7054 88.273 65.0974 88.462 65.4334 88.728C65.7834 88.98 66.0634 89.323 66.2734 89.757C66.4974 90.177 66.6094 90.709 66.6094 91.353C66.6094 91.843 66.5324 92.27 66.3784 92.634C66.2384 92.998 66.0424 93.313 65.7904 93.579C65.5384 93.831 65.2444 94.041 64.9084 94.209C64.5724 94.377 64.2154 94.503 63.8374 94.587V94.818C64.4254 94.972 64.8804 95.224 65.2024 95.574C65.5384 95.91 65.7904 96.295 65.9584 96.729C66.1264 97.163 66.2314 97.625 66.2734 98.115C66.3154 98.591 66.3434 99.046 66.3574 99.48C66.3714 99.788 66.3854 100.082 66.3994 100.362C66.4274 100.628 66.4694 100.866 66.5254 101.076C66.5814 101.272 66.6654 101.433 66.7774 101.559C66.8894 101.671 67.0434 101.727 67.2394 101.727C67.3654 101.727 67.4844 101.713 67.5964 101.685C67.7084 101.643 67.8204 101.601 67.9324 101.559C67.9464 101.559 67.9604 101.552 67.9744 101.538L68.1004 101.853C67.8624 101.965 67.6244 102.042 67.3864 102.084C67.1624 102.126 66.9314 102.147 66.6934 102.147C66.0774 102.147 65.5944 102.056 65.2444 101.874C64.8944 101.692 64.6214 101.44 64.4254 101.118C64.2434 100.796 64.1174 100.411 64.0474 99.963C63.9914 99.515 63.9424 99.018 63.9004 98.472C63.8864 98.304 63.8724 98.129 63.8584 97.947C63.8444 97.765 63.8234 97.576 63.7954 97.38C63.7254 96.778 63.5784 96.309 63.3544 95.973C63.1444 95.637 62.8784 95.392 62.5564 95.238C62.2484 95.07 61.8984 94.972 61.5064 94.944C61.1144 94.902 60.7084 94.881 60.2884 94.881V101.643ZM60.2884 88.35V94.545H60.9604C61.3524 94.545 61.7374 94.489 62.1154 94.377C62.5074 94.265 62.8504 94.09 63.1444 93.852C63.4384 93.6 63.6764 93.285 63.8584 92.907C64.0404 92.515 64.1314 92.039 64.1314 91.479C64.1314 90.849 64.0474 90.331 63.8794 89.925C63.7114 89.519 63.4804 89.204 63.1864 88.98C62.8924 88.742 62.5494 88.581 62.1574 88.497C61.7654 88.399 61.3454 88.35 60.8974 88.35H60.2884ZM80.0495 97.359V102H69.6965V101.643H71.0195V88.35H69.6965V87.993H74.8625V88.35H73.3925V101.643H75.8495C76.4935 101.643 77.0535 101.615 77.5295 101.559C78.0195 101.489 78.4255 101.314 78.7475 101.034C79.0695 100.754 79.3075 100.327 79.4615 99.753C79.6295 99.179 79.7135 98.381 79.7135 97.359H80.0495ZM80.9954 101.643C81.3034 101.643 81.5554 101.622 81.7514 101.58C81.9474 101.538 82.1084 101.461 82.2344 101.349C82.3604 101.237 82.4654 101.076 82.5494 100.866C82.6334 100.642 82.7314 100.362 82.8434 100.026C83.4454 97.982 84.0544 95.945 84.6704 93.915C85.2864 91.871 85.9024 89.827 86.5184 87.783H87.2324L91.7054 101.643H92.6294V102H87.6104V101.643H89.0174L87.6734 97.422H84.0194L83.8724 97.842C83.8024 98.052 83.7184 98.318 83.6204 98.64C83.5224 98.962 83.4244 99.284 83.3264 99.606C83.2424 99.928 83.1654 100.222 83.0954 100.488C83.0254 100.754 82.9904 100.936 82.9904 101.034C82.9904 101.202 83.0534 101.328 83.1794 101.412C83.3194 101.496 83.4804 101.559 83.6624 101.601C83.8444 101.629 84.0264 101.643 84.2084 101.643C84.4044 101.643 84.5584 101.643 84.6704 101.643H84.7124V102H80.9954V101.643ZM84.1244 97.065H87.5684L85.8044 91.563L84.1244 97.065ZM112.241 92.487H111.821C111.751 91.969 111.632 91.465 111.464 90.975C111.31 90.485 111.107 90.051 110.855 89.673C110.603 89.295 110.295 88.994 109.931 88.77C109.567 88.546 109.147 88.434 108.671 88.434C107.901 88.434 107.292 88.665 106.844 89.127C106.396 89.575 106.053 90.135 105.815 90.807C105.591 91.479 105.444 92.2 105.374 92.97C105.304 93.726 105.262 94.412 105.248 95.028C105.234 95.42 105.241 95.854 105.269 96.33C105.297 96.806 105.353 97.289 105.437 97.779C105.521 98.255 105.633 98.724 105.773 99.186C105.927 99.648 106.123 100.061 106.361 100.425C106.599 100.775 106.886 101.062 107.222 101.286C107.558 101.496 107.95 101.601 108.398 101.601C109.028 101.601 109.567 101.412 110.015 101.034C110.463 100.656 110.687 100.047 110.687 99.207V95.721H109.448V95.364H114.362V95.721H113.144L113.102 101.895C112.934 101.531 112.773 101.293 112.619 101.181C112.465 101.069 112.297 101.034 112.115 101.076C111.947 101.104 111.758 101.174 111.548 101.286C111.352 101.398 111.128 101.496 110.876 101.58C110.47 101.748 110.05 101.888 109.616 102C109.196 102.126 108.755 102.189 108.293 102.189C107.425 102.189 106.641 102.021 105.941 101.685C105.241 101.349 104.639 100.873 104.135 100.257C103.631 99.641 103.239 98.913 102.959 98.073C102.693 97.219 102.56 96.274 102.56 95.238C102.56 94.272 102.693 93.341 102.959 92.445C103.239 91.549 103.631 90.765 104.135 90.093C104.639 89.407 105.234 88.861 105.92 88.455C106.62 88.049 107.39 87.846 108.23 87.846C108.566 87.846 108.874 87.902 109.154 88.014C109.434 88.126 109.7 88.252 109.952 88.392C110.204 88.518 110.442 88.637 110.666 88.749C110.89 88.861 111.121 88.917 111.359 88.917C111.555 88.917 111.681 88.854 111.737 88.728C111.793 88.588 111.828 88.42 111.842 88.224H112.241V92.487ZM114.939 101.643C115.247 101.643 115.499 101.622 115.695 101.58C115.891 101.538 116.052 101.461 116.178 101.349C116.304 101.237 116.409 101.076 116.493 100.866C116.577 100.642 116.675 100.362 116.787 100.026C117.389 97.982 117.998 95.945 118.614 93.915C119.23 91.871 119.846 89.827 120.462 87.783H121.176L125.649 101.643H126.573V102H121.554V101.643H122.961L121.617 97.422H117.963L117.816 97.842C117.746 98.052 117.662 98.318 117.564 98.64C117.466 98.962 117.368 99.284 117.27 99.606C117.186 99.928 117.109 100.222 117.039 100.488C116.969 100.754 116.934 100.936 116.934 101.034C116.934 101.202 116.997 101.328 117.123 101.412C117.263 101.496 117.424 101.559 117.606 101.601C117.788 101.629 117.97 101.643 118.152 101.643C118.348 101.643 118.502 101.643 118.614 101.643H118.656V102H114.939V101.643ZM118.068 97.065H121.512L119.748 91.563L118.068 97.065ZM137.853 97.359V102H127.5V101.643H128.823V88.35H127.5V87.993H132.666V88.35H131.196V101.643H133.653C134.297 101.643 134.857 101.615 135.333 101.559C135.823 101.489 136.229 101.314 136.551 101.034C136.873 100.754 137.111 100.327 137.265 99.753C137.433 99.179 137.517 98.381 137.517 97.359H137.853ZM139.471 87.993H143.818C144.798 87.993 145.729 88.105 146.611 88.329C147.493 88.553 148.263 88.938 148.921 89.484C149.593 90.016 150.125 90.737 150.517 91.647C150.909 92.557 151.105 93.691 151.105 95.049C151.105 96.379 150.916 97.492 150.538 98.388C150.174 99.27 149.67 99.977 149.026 100.509C148.396 101.041 147.654 101.426 146.8 101.664C145.96 101.888 145.057 102 144.091 102H139.471V101.643H140.668V88.371H139.471V87.993ZM143.146 88.371V101.643C144.154 101.643 145.001 101.51 145.687 101.244C146.373 100.964 146.926 100.544 147.346 99.984C147.766 99.424 148.067 98.724 148.249 97.884C148.431 97.03 148.522 96.029 148.522 94.881C148.522 93.943 148.424 93.075 148.228 92.277C148.032 91.479 147.731 90.793 147.325 90.219C146.933 89.631 146.429 89.176 145.813 88.854C145.211 88.518 144.497 88.35 143.671 88.35L143.146 88.371ZM153.125 87.993H158.354V88.35H156.842V101.643H158.354V102H153.125V101.643H154.448V88.35H153.125V87.993ZM160.005 101.643C160.425 101.643 160.754 101.636 160.992 101.622C161.23 101.594 161.398 101.524 161.496 101.412C161.608 101.286 161.671 101.104 161.685 100.866C161.713 100.614 161.727 100.257 161.727 99.795V88.623L161.454 88.35H160.005V87.993H164.226L170.316 97.989V90.093C170.316 89.645 170.302 89.302 170.274 89.064C170.26 88.826 170.211 88.658 170.127 88.56C170.043 88.448 169.917 88.385 169.749 88.371C169.595 88.357 169.378 88.35 169.098 88.35H168.636V87.993H172.437V88.35H171.954C171.674 88.35 171.45 88.357 171.282 88.371C171.114 88.385 170.988 88.448 170.904 88.56C170.82 88.658 170.764 88.826 170.736 89.064C170.722 89.302 170.715 89.645 170.715 90.093V102.105H169.665L162.126 89.631V99.438C162.126 99.998 162.133 100.432 162.147 100.74C162.161 101.034 162.217 101.251 162.315 101.391C162.427 101.517 162.602 101.594 162.84 101.622C163.078 101.636 163.421 101.643 163.869 101.643V102H160.005V101.643ZM179.661 87.72C180.459 87.72 181.187 87.937 181.845 88.371C182.517 88.791 183.091 89.351 183.567 90.051C184.057 90.737 184.435 91.521 184.701 92.403C184.967 93.271 185.1 94.146 185.1 95.028C185.1 95.924 184.967 96.806 184.701 97.674C184.435 98.528 184.057 99.298 183.567 99.984C183.091 100.656 182.517 101.202 181.845 101.622C181.187 102.042 180.459 102.252 179.661 102.252C178.849 102.252 178.107 102.042 177.435 101.622C176.763 101.188 176.189 100.621 175.713 99.921C175.237 99.221 174.866 98.43 174.6 97.548C174.334 96.666 174.201 95.77 174.201 94.86C174.201 93.992 174.341 93.131 174.621 92.277C174.915 91.423 175.307 90.66 175.797 89.988C176.301 89.316 176.882 88.77 177.54 88.35C178.198 87.93 178.905 87.72 179.661 87.72ZM179.703 88.056C179.255 88.056 178.87 88.175 178.548 88.413C178.226 88.637 177.953 88.945 177.729 89.337C177.505 89.715 177.323 90.149 177.183 90.639C177.057 91.115 176.952 91.612 176.868 92.13C176.798 92.634 176.749 93.138 176.721 93.642C176.693 94.132 176.679 94.573 176.679 94.965C176.679 95.371 176.686 95.826 176.7 96.33C176.728 96.82 176.777 97.324 176.847 97.842C176.917 98.346 177.015 98.843 177.141 99.333C177.267 99.823 177.435 100.264 177.645 100.656C177.869 101.034 178.142 101.342 178.464 101.58C178.786 101.804 179.178 101.916 179.64 101.916C180.102 101.916 180.494 101.797 180.816 101.559C181.138 101.321 181.404 101.013 181.614 100.635C181.824 100.243 181.985 99.802 182.097 99.312C182.209 98.808 182.293 98.304 182.349 97.8C182.405 97.282 182.44 96.778 182.454 96.288C182.468 95.784 182.475 95.336 182.475 94.944C182.475 94.594 182.461 94.181 182.433 93.705C182.419 93.229 182.377 92.739 182.307 92.235C182.237 91.731 182.139 91.227 182.013 90.723C181.901 90.219 181.74 89.771 181.53 89.379C181.32 88.987 181.068 88.672 180.774 88.434C180.48 88.182 180.123 88.056 179.703 88.056Z" fill="black"/>
<path d="M113.123 104.848V106.013C113.154 106.011 113.208 106.01 113.284 106.01C113.361 106.009 113.42 106.008 113.462 106.008C113.505 106.006 113.564 106.003 113.641 105.998C113.717 105.992 113.778 105.985 113.824 105.979C113.871 105.97 113.927 105.959 113.992 105.944C114.059 105.928 114.113 105.91 114.153 105.891C114.196 105.869 114.24 105.843 114.285 105.812C114.332 105.78 114.369 105.744 114.395 105.705C114.421 105.666 114.442 105.62 114.458 105.566C114.476 105.511 114.485 105.45 114.485 105.385C114.485 105.336 114.48 105.29 114.471 105.246C114.461 105.202 114.441 105.155 114.41 105.104C114.379 105.054 114.339 105.011 114.29 104.975C114.241 104.939 114.174 104.909 114.087 104.885C114.003 104.86 113.904 104.848 113.792 104.848H113.123ZM113.123 106.335V107.634H113.77C113.829 107.634 113.877 107.634 113.917 107.634C113.957 107.632 114.015 107.627 114.09 107.619C114.165 107.609 114.228 107.597 114.28 107.583C114.334 107.566 114.393 107.543 114.458 107.512C114.524 107.479 114.576 107.441 114.615 107.397C114.655 107.353 114.69 107.297 114.717 107.229C114.745 107.159 114.759 107.08 114.759 106.992C114.759 106.775 114.675 106.606 114.507 106.484C114.34 106.362 114.114 106.301 113.831 106.301C113.8 106.301 113.564 106.312 113.123 106.335ZM112.708 104.531H113.931C114.05 104.531 114.158 104.544 114.256 104.57C114.355 104.594 114.437 104.626 114.5 104.665C114.565 104.704 114.622 104.75 114.671 104.804C114.721 104.858 114.76 104.91 114.786 104.96C114.812 105.011 114.833 105.065 114.849 105.122C114.865 105.179 114.875 105.226 114.878 105.263C114.883 105.299 114.886 105.333 114.886 105.366C114.886 105.507 114.838 105.649 114.742 105.791C114.646 105.931 114.544 106.021 114.437 106.062C114.651 106.101 114.827 106.205 114.964 106.374C115.102 106.542 115.171 106.733 115.171 106.948C115.171 106.998 115.167 107.051 115.157 107.106C115.149 107.162 115.132 107.224 115.105 107.294C115.079 107.364 115.046 107.431 115.005 107.495C114.965 107.558 114.909 107.622 114.839 107.685C114.769 107.747 114.689 107.801 114.598 107.846C114.508 107.892 114.397 107.929 114.266 107.958C114.135 107.986 113.992 108 113.836 108H112.708V104.531ZM118.235 108V104.531H120.268V104.897H118.65V106.03H120.134V106.396H118.65V107.634H120.268V108H118.235ZM124.262 104.531H124.733L125.966 108H125.546L125.194 106.992H123.764L123.412 108H123.029L124.262 104.531ZM124.479 104.936L123.888 106.628H125.067L124.479 104.936ZM128.848 104.531H129.263V106.779C129.263 106.918 129.275 107.036 129.297 107.136C129.322 107.235 129.372 107.328 129.449 107.414C129.612 107.598 129.852 107.69 130.169 107.69C130.399 107.69 130.59 107.64 130.743 107.541C130.897 107.44 130.997 107.299 131.043 107.116C131.064 107.03 131.075 106.918 131.075 106.779V104.531H131.485C131.485 105.053 131.485 105.48 131.485 105.812C131.487 106.145 131.487 106.358 131.487 106.452C131.487 106.545 131.487 106.62 131.487 106.677C131.489 106.732 131.49 106.778 131.49 106.816C131.49 106.891 131.488 106.957 131.485 107.014C131.482 107.069 131.47 107.142 131.451 107.233C131.433 107.325 131.408 107.404 131.375 107.473C131.343 107.539 131.293 107.611 131.226 107.688C131.161 107.764 131.083 107.827 130.992 107.878C130.902 107.927 130.787 107.967 130.645 108C130.505 108.033 130.346 108.049 130.169 108.049C129.979 108.049 129.808 108.029 129.656 107.99C129.505 107.95 129.386 107.902 129.3 107.846C129.214 107.791 129.139 107.724 129.075 107.646C129.013 107.568 128.97 107.501 128.946 107.446C128.923 107.389 128.904 107.329 128.89 107.268C128.862 107.16 128.848 107.008 128.848 106.811V104.531ZM134.26 104.531H136.994V104.897H135.835V108H135.42V104.897H134.26V104.531ZM139.301 104.531H139.792L140.675 105.964L141.579 104.531H142.042L140.861 106.357V108H140.446V106.357L139.301 104.531ZM149.614 104.499C149.881 104.499 150.168 104.545 150.476 104.638L150.342 105.017C150.049 104.932 149.795 104.89 149.58 104.89C149.339 104.89 149.135 104.941 148.967 105.043C148.801 105.144 148.718 105.275 148.718 105.437C148.718 105.526 148.745 105.606 148.799 105.676C148.852 105.746 148.923 105.803 149.011 105.847C149.099 105.891 149.199 105.935 149.311 105.979C149.424 106.021 149.538 106.06 149.653 106.096C149.77 106.132 149.885 106.177 149.997 106.232C150.11 106.288 150.21 106.349 150.298 106.416C150.386 106.481 150.456 106.566 150.51 106.672C150.564 106.778 150.591 106.897 150.591 107.031C150.591 107.124 150.576 107.216 150.547 107.309C150.517 107.4 150.469 107.491 150.4 107.583C150.332 107.672 150.247 107.751 150.146 107.819C150.045 107.888 149.918 107.943 149.763 107.985C149.61 108.028 149.439 108.049 149.25 108.049C149.062 108.049 148.887 108.029 148.728 107.99C148.57 107.951 148.393 107.893 148.196 107.814L148.337 107.412C148.744 107.563 149.066 107.639 149.302 107.639C149.549 107.639 149.75 107.589 149.905 107.49C150.061 107.39 150.139 107.258 150.139 107.092C150.139 106.981 150.104 106.886 150.034 106.806C149.966 106.725 149.876 106.66 149.766 106.611C149.656 106.56 149.535 106.514 149.402 106.472C149.268 106.428 149.135 106.381 149.001 106.333C148.87 106.282 148.748 106.224 148.638 106.159C148.529 106.094 148.439 106.006 148.369 105.896C148.301 105.785 148.267 105.655 148.267 105.505C148.267 105.371 148.298 105.244 148.362 105.122C148.427 105 148.516 104.893 148.63 104.802C148.744 104.709 148.887 104.636 149.058 104.582C149.228 104.527 149.414 104.499 149.614 104.499ZM153.192 104.531H155.927V104.897H154.767V108H154.352V104.897H153.192V104.531ZM158.697 104.531H159.112V106.779C159.112 106.918 159.124 107.036 159.146 107.136C159.171 107.235 159.221 107.328 159.298 107.414C159.46 107.598 159.7 107.69 160.018 107.69C160.247 107.69 160.439 107.64 160.592 107.541C160.746 107.44 160.846 107.299 160.892 107.116C160.913 107.03 160.924 106.918 160.924 106.779V104.531H161.334C161.334 105.053 161.334 105.48 161.334 105.812C161.335 106.145 161.336 106.358 161.336 106.452C161.336 106.545 161.336 106.62 161.336 106.677C161.338 106.732 161.339 106.778 161.339 106.816C161.339 106.891 161.337 106.957 161.334 107.014C161.331 107.069 161.319 107.142 161.3 107.233C161.282 107.325 161.256 107.404 161.224 107.473C161.191 107.539 161.142 107.611 161.075 107.688C161.01 107.764 160.932 107.827 160.841 107.878C160.751 107.927 160.636 107.967 160.494 108C160.354 108.033 160.195 108.049 160.018 108.049C159.827 108.049 159.657 108.029 159.505 107.99C159.354 107.95 159.235 107.902 159.149 107.846C159.062 107.791 158.988 107.724 158.924 107.646C158.862 107.568 158.819 107.501 158.795 107.446C158.772 107.389 158.753 107.329 158.739 107.268C158.711 107.16 158.697 107.008 158.697 106.811V104.531ZM165.024 104.897V107.634H165.53C165.603 107.634 165.663 107.633 165.71 107.631C165.759 107.63 165.824 107.625 165.906 107.617C165.989 107.609 166.06 107.596 166.118 107.58C166.178 107.564 166.246 107.54 166.321 107.509C166.397 107.478 166.465 107.441 166.523 107.397C166.582 107.353 166.641 107.297 166.699 107.229C166.758 107.16 166.809 107.083 166.853 106.997C166.96 106.79 167.014 106.538 167.014 106.242C167.014 106.037 166.984 105.852 166.924 105.688C166.865 105.522 166.786 105.388 166.687 105.285C166.589 105.181 166.484 105.099 166.372 105.039C166.261 104.978 166.145 104.938 166.023 104.917C165.951 104.903 165.843 104.897 165.698 104.897H165.024ZM165.684 104.531C165.908 104.531 166.112 104.554 166.296 104.599C166.48 104.643 166.634 104.706 166.758 104.787C166.883 104.868 166.991 104.96 167.08 105.063C167.17 105.166 167.239 105.28 167.288 105.407C167.338 105.533 167.375 105.656 167.397 105.778C167.42 105.9 167.432 106.027 167.432 106.159C167.432 106.311 167.42 106.456 167.397 106.596C167.375 106.736 167.335 106.879 167.278 107.023C167.222 107.168 167.151 107.299 167.063 107.414C166.977 107.528 166.864 107.631 166.726 107.724C166.588 107.815 166.431 107.883 166.255 107.927C166.164 107.95 166.062 107.967 165.95 107.978C165.837 107.989 165.745 107.996 165.671 107.998C165.598 107.999 165.495 108 165.361 108H164.609V104.531H165.684ZM170.654 104.531H171.069V108H170.654V104.531ZM175.863 104.494C176.092 104.494 176.306 104.535 176.505 104.616C176.705 104.696 176.878 104.809 177.022 104.956C177.169 105.102 177.284 105.285 177.367 105.505C177.45 105.723 177.491 105.963 177.491 106.225C177.491 106.58 177.42 106.896 177.279 107.172C177.139 107.447 176.943 107.661 176.693 107.812C176.444 107.962 176.161 108.037 175.846 108.037C175.637 108.037 175.438 108 175.247 107.927C175.057 107.852 174.885 107.744 174.732 107.602C174.579 107.46 174.457 107.276 174.366 107.048C174.275 106.818 174.229 106.56 174.229 106.274C174.229 106.005 174.271 105.76 174.354 105.537C174.437 105.314 174.551 105.126 174.696 104.975C174.841 104.822 175.013 104.704 175.213 104.621C175.413 104.536 175.63 104.494 175.863 104.494ZM175.841 104.858C175.693 104.858 175.55 104.886 175.413 104.941C175.277 104.996 175.151 105.078 175.035 105.185C174.921 105.291 174.829 105.434 174.759 105.615C174.691 105.794 174.657 105.996 174.657 106.223C174.657 106.439 174.688 106.639 174.752 106.823C174.815 107.006 174.902 107.159 175.011 107.282C175.12 107.406 175.248 107.502 175.396 107.57C175.546 107.639 175.706 107.673 175.877 107.673C175.993 107.673 176.106 107.656 176.217 107.622C176.329 107.587 176.436 107.534 176.539 107.46C176.642 107.386 176.731 107.294 176.808 107.187C176.886 107.08 176.947 106.947 176.993 106.789C177.04 106.631 177.064 106.458 177.064 106.269C177.064 106.077 177.039 105.901 176.991 105.742C176.942 105.582 176.877 105.449 176.795 105.341C176.716 105.234 176.622 105.144 176.515 105.07C176.409 104.995 176.299 104.942 176.185 104.909C176.073 104.875 175.958 104.858 175.841 104.858Z" fill="black"/>
<path d="M82.1289 58.5717C82.5655 57.2637 84.0299 56.1757 85.3964 56.1551C85.7384 56.1482 86.0512 56.2118 86.3348 56.3304C87.0602 56.0072 87.8817 55.8869 88.5968 56.0657C89.6246 56.3218 90.252 57.1021 90.362 58.2589C90.6129 60.8869 91.2386 63.8347 91.902 65.99C91.9519 66.0588 92.0069 66.1344 92.0533 66.2015C92.33 66.119 92.6171 66.0605 92.9196 66.0605C94.6023 66.0605 95.9636 67.4235 95.9636 69.1045C95.9636 69.6184 95.8243 70.0928 95.6009 70.5157C97.2389 71.7635 99.1932 73.0681 101.221 74.3572C100.118 72.1777 99.054 69.9845 98.0382 67.7656C96.7714 64.9863 95.5717 62.1743 94.4613 59.328C93.3527 56.4799 92.3352 53.5958 91.4655 50.66C91.0375 49.1922 90.6421 47.7106 90.3104 46.2135C89.9907 44.713 89.6934 43.2056 89.537 41.6724C89.3737 40.141 89.2963 38.5923 89.4287 37.0385L89.5782 35.8594L89.8257 34.7422C90.0715 33.9722 90.3293 33.2021 90.8329 32.5421C91.3039 31.8838 91.9811 31.2822 92.813 31.0519C93.6329 30.8027 94.4871 30.8543 95.276 31.033C96.8539 31.4283 98.2186 32.2791 99.4407 33.2434C101.878 35.1925 103.86 37.6384 105.431 40.3128C106.209 41.6535 106.876 43.0681 107.373 44.5531C107.739 45.6618 108.014 46.8134 108.126 47.9925L108.538 47.5559L109.843 46.3166C110.752 45.5328 111.675 44.7525 112.718 44.1166C113.75 43.4737 114.858 42.8979 116.096 42.6143C117.316 42.3084 118.698 42.3359 119.91 42.8773C121.139 43.3947 122.088 44.3778 122.729 45.4641C123.38 46.5538 123.782 47.7535 123.997 48.9722C124.209 50.1925 124.246 51.4369 124.109 52.6659C123.971 53.8948 123.662 55.1186 123.114 56.2616C122.971 56.5538 122.822 56.8048 122.641 57.1159L122.141 57.8446C121.823 58.3328 121.443 58.8123 121.07 59.2901C120.702 59.7783 120.317 60.2355 119.929 60.6858C119.547 61.1465 119.159 61.5968 118.757 62.0334C117.175 63.8106 115.522 65.5071 113.841 67.1726C113.523 67.4871 113.2 67.7931 112.88 68.1076C114.81 67.0145 116.814 66.045 118.93 65.2939C120.491 64.7525 122.105 64.3022 123.784 64.1166C125.46 63.9292 127.203 64.0031 128.87 64.4844C130.536 64.9588 132.077 65.8869 133.291 67.1038C133.576 67.4218 133.908 67.7071 134.152 68.056L134.905 69.0856C135.13 69.4431 135.324 69.8161 135.536 70.1822C135.64 70.3713 135.742 70.5311 135.847 70.7477L136.099 71.2943C136.438 72.0729 136.73 72.8928 136.887 73.7504C137.043 74.6081 137.058 75.5432 136.792 76.4404C136.541 77.3462 135.962 78.1454 135.269 78.7195C134.576 79.3039 133.786 79.7009 132.985 79.9863C131.376 80.5586 129.726 80.7683 128.095 80.8783C126.46 80.9832 124.833 80.9522 123.215 80.8594C119.979 80.6686 116.773 80.2303 113.604 79.6391C111.672 79.2781 109.752 78.8725 107.84 78.4256C111.842 80.8543 115.008 82.8223 115.106 83.5923C115.307 85.1977 105.671 82.9873 100.785 78.7728C97.5724 76.0004 95.6112 73.2073 94.6401 71.6157C94.1502 71.9474 93.559 72.1485 92.9213 72.1485C91.2386 72.1485 89.8773 70.7855 89.8773 69.1045C89.8773 67.977 90.496 67.0007 91.4087 66.4782C91.3847 66.406 91.364 66.3338 91.34 66.2599C89.5834 63.8347 87.6978 59.6133 87.1048 58.0268C86.9089 57.4992 86.627 57.1829 86.3262 56.9955C85.9137 57.2207 85.5528 57.5249 85.3139 57.8876C85.0354 58.2795 84.8584 58.8519 85.1488 59.5566C85.4015 59.3211 85.7848 59.2626 86.0925 59.4534C86.4603 59.6855 86.572 60.1702 86.3417 60.5397C86.1114 60.9075 85.6267 61.0193 85.2589 60.7889C85.142 60.7133 85.0578 60.6102 84.9976 60.4916C84.2809 59.5119 84.2241 58.4634 84.8137 57.5559C85.0131 57.2551 85.2795 56.9887 85.582 56.7635C85.5235 56.7601 85.4651 56.7566 85.4084 56.7566C84.2963 56.7773 83.0536 57.6968 82.6996 58.7625C82.5311 59.2145 82.5105 59.8109 82.9711 60.4177C83.155 60.1238 83.5091 59.9674 83.858 60.0756C84.274 60.2028 84.5077 60.6428 84.3805 61.0571C84.2516 61.473 83.8133 61.7068 83.3974 61.5796C83.2633 61.5418 83.1568 61.4593 83.0691 61.3613C82.1186 60.5999 81.7937 59.603 82.1289 58.5717ZM117.763 61.1327C118.164 60.7064 118.549 60.2682 118.927 59.8264C119.31 59.3864 119.693 58.9464 120.039 58.4995C120.395 58.0526 120.756 57.6143 121.086 57.1176L121.593 56.394C121.704 56.1946 121.864 55.9402 121.981 55.7064C122.933 53.7367 123.169 51.3785 122.816 49.1767C122.634 48.0732 122.278 47.0007 121.728 46.0605C121.185 45.1203 120.415 44.3262 119.456 43.9154C118.511 43.4823 117.411 43.4359 116.347 43.6868C115.276 43.9189 114.252 44.4328 113.286 45.0241C112.308 45.6068 111.414 46.3458 110.534 47.0901L109.265 48.2778L108.055 49.5325L107.162 50.4572L107.182 49.1836C107.206 47.7329 106.921 46.2651 106.465 44.8522C106.008 43.4359 105.381 42.0712 104.64 40.7683C103.15 38.1729 101.239 35.7786 98.9268 33.8948C97.7735 32.9598 96.4844 32.1623 95.0956 31.7927C94.4046 31.6277 93.6913 31.5865 93.0399 31.7721C92.3799 31.944 91.8401 32.4115 91.4259 32.9701C90.9876 33.5218 90.7453 34.2248 90.515 34.8969L90.2537 36.009L90.1059 37.0987C89.9632 38.5889 90.0165 40.0997 90.1592 41.6037C90.2932 43.1093 90.5682 44.6047 90.8673 46.0915C91.1784 47.5782 91.5514 49.053 91.9587 50.5157C92.7838 53.4445 93.7669 56.3321 94.8343 59.1853C95.9086 62.0368 97.0687 64.8574 98.2994 67.6487C99.3273 69.9708 100.407 72.2688 101.527 74.5411C101.938 74.8006 102.351 75.0619 102.767 75.3163C106.202 72.3531 109.585 69.3056 112.846 66.1482C114.528 64.5205 116.189 62.8584 117.763 61.1327ZM113.7 79.0581C116.878 79.4912 120.068 79.8419 123.256 79.9364C124.85 79.9794 126.443 79.9622 128.016 79.8161C129.582 79.6683 131.149 79.4122 132.562 78.8587C133.965 78.3225 135.212 77.3995 135.546 76.0811C135.915 74.7714 135.472 73.2382 134.851 71.8855L134.589 71.3458C134.516 71.2032 134.401 71.0227 134.308 70.8629C134.111 70.5363 133.928 70.1977 133.721 69.878L133.033 68.9773C132.811 68.6662 132.516 68.4342 132.263 68.154C131.189 67.1176 129.882 66.3613 128.449 65.978C127.017 65.5844 125.487 65.5569 123.971 65.7271C122.452 65.9007 120.946 66.3269 119.477 66.8443C116.531 67.891 113.748 69.4414 111.075 71.1344C109.738 71.9869 108.433 72.891 107.16 73.845C106.149 74.6013 105.156 75.3988 104.195 76.2118C105.161 76.8048 106.122 77.3874 107.046 77.9478C109.255 78.3757 111.476 78.747 113.7 79.0581ZM87.6721 57.8154C88.5091 60.0533 89.7071 62.4648 90.8175 64.3176C90.252 61.9612 89.879 59.4672 89.7673 58.3173C89.6607 57.1812 88.9938 56.7824 88.4558 56.6501C87.9917 56.5366 87.471 56.5796 86.9708 56.7326C87.263 57.0041 87.5053 57.3651 87.6721 57.8154Z" fill="black"/>
<path d="M120.264 70.9454C123.81 73.4204 122.07 76.9302 119.059 76.8151C116.048 76.7016 108.421 74.6941 108.421 74.6941C108.421 74.6941 116.718 68.4686 120.264 70.9454Z" fill="black"/>
<path d="M104.506 71.8821C104.506 71.8821 99.7191 65.3266 99.0505 58.6989C98.3802 52.0746 104.271 50.2011 106.278 59.5686C109.424 54.8161 115.004 57.2276 113.014 62.1107C111.031 66.9973 104.506 71.8821 104.506 71.8821Z" fill="black"/>
<mask id="path-6-inside-1" fill="white">
<path fill-rule="evenodd" clip-rule="evenodd" d="M29 44H85.0566V45H29V106H109.509V107H29H28V106V45V44H29ZM178.792 107H189H190V106V45V44H189H124.792V45H189V106H178.792V107Z"/>
</mask>
<path d="M85.0566 44H86.0566C86.0566 43.4477 85.6089 43 85.0566 43V44ZM85.0566 45V46C85.6089 46 86.0566 45.5523 86.0566 45H85.0566ZM29 45V44C28.4477 44 28 44.4477 28 45H29ZM29 106H28C28 106.552 28.4477 107 29 107V106ZM109.509 106H110.509C110.509 105.448 110.062 105 109.509 105V106ZM109.509 107V108C110.062 108 110.509 107.552 110.509 107H109.509ZM28 107H27C27 107.552 27.4477 108 28 108V107ZM28 44V43C27.4477 43 27 43.4477 27 44H28ZM178.792 107H177.792C177.792 107.552 178.24 108 178.792 108V107ZM190 107V108C190.552 108 191 107.552 191 107H190ZM190 44H191C191 43.4477 190.552 43 190 43V44ZM124.792 44V43C124.24 43 123.792 43.4477 123.792 44H124.792ZM124.792 45H123.792C123.792 45.5523 124.24 46 124.792 46V45ZM189 45H190C190 44.4477 189.552 44 189 44V45ZM189 106V107C189.552 107 190 106.552 190 106H189ZM178.792 106V105C178.24 105 177.792 105.448 177.792 106H178.792ZM85.0566 43H29V45H85.0566V43ZM86.0566 45V44H84.0566V45H86.0566ZM29 46H85.0566V44H29V46ZM30 106V45H28V106H30ZM109.509 105H29V107H109.509V105ZM110.509 107V106H108.509V107H110.509ZM29 108H109.509V106H29V108ZM28 108H29V106H28V108ZM27 106V107H29V106H27ZM27 45V106H29V45H27ZM27 44V45H29V44H27ZM29 43H28V45H29V43ZM178.792 108H189V106H178.792V108ZM189 108H190V106H189V108ZM191 107V106H189V107H191ZM191 106V45H189V106H191ZM191 45V44H189V45H191ZM190 43H189V45H190V43ZM189 43H124.792V45H189V43ZM123.792 44V45H125.792V44H123.792ZM124.792 46H189V44H124.792V46ZM188 45V106H190V45H188ZM189 105H178.792V107H189V105ZM177.792 106V107H179.792V106H177.792Z" fill="black" mask="url(#path-6-inside-1)"/>
</svg>
