<svg width="234" height="121" viewBox="0 0 234 121" fill="none" xmlns="http://www.w3.org/2000/svg">
<path d="M15.7041 108.9C15.7041 108.709 15.6935 108.508 15.6722 108.297C15.651 108.085 15.6084 107.894 15.5446 107.725C15.4808 107.534 15.385 107.375 15.2574 107.248C15.151 107.121 15.0021 107.058 14.8106 107.058C14.7043 107.058 14.5554 107.111 14.3639 107.217C14.1937 107.322 13.9916 107.46 13.7576 107.63C13.3322 107.968 12.7791 108.328 12.0984 108.709C11.4389 109.069 10.6518 109.249 9.73709 109.249C8.482 109.249 7.3439 108.974 6.32281 108.424C5.323 107.852 4.47209 107.09 3.77009 106.137C3.06809 105.184 2.52563 104.072 2.14272 102.802C1.75981 101.51 1.56836 100.144 1.56836 98.7042C1.56836 97.2643 1.74918 95.8668 2.11081 94.5116C2.49372 93.1352 3.03618 91.9282 3.73818 90.8907C4.44018 89.8319 5.30172 88.9849 6.32281 88.3497C7.3439 87.7144 8.51391 87.3968 9.83281 87.3968C10.4072 87.3968 10.9177 87.4921 11.3645 87.6827C11.8112 87.8521 12.226 88.0426 12.6089 88.2544C12.9918 88.4661 13.3534 88.6673 13.6938 88.8579C14.0342 89.0273 14.3958 89.112 14.7787 89.112C15.034 89.112 15.2255 89.0484 15.3531 88.9214C15.4808 88.7732 15.5659 88.5508 15.6084 88.2544H16.1828V94.6704H15.5446C15.502 93.9081 15.3319 93.1458 15.034 92.3835C14.7575 91.6 14.3958 90.9013 13.9491 90.2872C13.5024 89.6519 12.9705 89.1437 12.3536 88.7626C11.758 88.3603 11.1198 88.1591 10.4391 88.1591C9.75836 88.1591 9.17336 88.3391 8.68409 88.6991C8.19481 89.059 7.78 89.5355 7.43963 90.1284C7.09927 90.7213 6.82272 91.3989 6.61 92.1612C6.41854 92.9023 6.259 93.6646 6.13136 94.4481C6.025 95.2104 5.95054 95.9727 5.908 96.735C5.88672 97.4761 5.87609 98.1325 5.87609 98.7042C5.87609 99.7842 5.93991 100.885 6.06754 102.008C6.19518 103.109 6.45045 104.125 6.83336 105.057C7.21627 105.967 7.75872 106.719 8.46072 107.312C9.16272 107.884 10.0881 108.169 11.2368 108.169C11.8537 108.169 12.4175 107.947 12.928 107.502C13.4385 107.037 13.8853 106.465 14.2682 105.787C14.6511 105.089 14.9595 104.347 15.1935 103.564C15.4489 102.759 15.619 102.018 15.7041 101.341H16.1828V108.9H15.7041ZM18.6328 108.36C19.1008 108.36 19.4837 108.328 19.7815 108.265C20.0793 108.201 20.324 108.085 20.5154 107.915C20.7069 107.746 20.8664 107.502 20.9941 107.185C21.1217 106.846 21.2706 106.423 21.4408 105.914C22.3555 102.823 23.2809 99.7418 24.2169 96.6714C25.1529 93.5799 26.0889 90.4883 27.0249 87.3968H28.1098L34.9064 108.36H36.3104V108.9H28.6841V108.36H30.8221L28.7799 101.976H23.2277L23.0043 102.611C22.898 102.929 22.7703 103.331 22.6214 103.818C22.4725 104.305 22.3236 104.792 22.1747 105.279C22.0471 105.766 21.9301 106.211 21.8237 106.613C21.7173 107.015 21.6641 107.291 21.6641 107.439C21.6641 107.693 21.7599 107.884 21.9513 108.011C22.1641 108.138 22.4087 108.233 22.6852 108.297C22.9618 108.339 23.2383 108.36 23.5149 108.36C23.8127 108.36 24.0467 108.36 24.2169 108.36H24.2807V108.9H18.6328V108.36ZM23.3872 101.436H28.6203L25.94 93.114L23.3872 101.436ZM42.9837 108.36H44.9301V108.9H37.7187V108.36H39.4737V88.2544H37.7187V87.7144H46.9404C47.6424 87.7144 48.3338 87.7991 49.0145 87.9685C49.6952 88.1379 50.2909 88.4238 50.8014 88.8261C51.3332 89.2073 51.7587 89.726 52.0778 90.3825C52.4181 91.0177 52.5883 91.8224 52.5883 92.7964C52.5883 93.5375 52.4713 94.1834 52.2373 94.7339C52.0246 95.2845 51.7268 95.7609 51.3439 96.1632C50.9609 96.5444 50.5142 96.862 50.0037 97.1161C49.4931 97.3702 48.9507 97.5608 48.3763 97.6878V98.0372C49.2698 98.2702 49.9611 98.6513 50.4504 99.1807C50.9609 99.6889 51.3439 100.271 51.5991 100.928C51.8544 101.584 52.0139 102.283 52.0778 103.024C52.1416 103.744 52.1841 104.432 52.2054 105.089C52.2267 105.554 52.2479 105.999 52.2692 106.423C52.3118 106.825 52.3756 107.185 52.4607 107.502C52.5458 107.799 52.6734 108.042 52.8436 108.233C53.0138 108.402 53.2478 108.487 53.5456 108.487C53.737 108.487 53.9179 108.466 54.088 108.424C54.2582 108.36 54.4284 108.297 54.5986 108.233C54.6199 108.233 54.6411 108.222 54.6624 108.201L54.8539 108.678C54.4922 108.847 54.1306 108.964 53.7689 109.027C53.4286 109.091 53.0776 109.122 52.7159 109.122C51.7799 109.122 51.046 108.985 50.5142 108.709C49.9824 108.434 49.5676 108.053 49.2698 107.566C48.9932 107.079 48.8018 106.497 48.6954 105.819C48.6103 105.141 48.5359 104.39 48.472 103.564C48.4508 103.31 48.4295 103.045 48.4082 102.77C48.3869 102.495 48.355 102.209 48.3125 101.912C48.2061 101.002 47.9828 100.292 47.6424 99.7842C47.3233 99.276 46.9191 98.9054 46.4299 98.6725C45.9619 98.4184 45.43 98.2702 44.8344 98.2278C44.2388 98.1643 43.6219 98.1325 42.9837 98.1325V108.36ZM42.9837 88.2544V97.6243H44.0048C44.6004 97.6243 45.1854 97.5396 45.7598 97.3702C46.3554 97.2008 46.8766 96.9361 47.3233 96.5762C47.77 96.195 48.1317 95.7186 48.4082 95.1468C48.6848 94.5539 48.823 93.834 48.823 92.987C48.823 92.0341 48.6954 91.2506 48.4401 90.6366C48.1849 90.0225 47.8339 89.5461 47.3871 89.2073C46.9404 88.8473 46.4192 88.6038 45.8236 88.4767C45.2279 88.3285 44.5898 88.2544 43.909 88.2544H42.9837ZM73.0103 101.88V108.9H57.2791V108.36H59.2894V88.2544H57.2791V87.7144H65.1287V88.2544H62.8951V108.36H66.6285C67.607 108.36 68.4579 108.318 69.1812 108.233C69.9257 108.127 70.5426 107.862 71.0319 107.439C71.5212 107.015 71.8828 106.37 72.1168 105.501C72.3721 104.633 72.4997 103.426 72.4997 101.88H73.0103ZM74.4476 108.36C74.9156 108.36 75.2985 108.328 75.5963 108.265C75.8941 108.201 76.1387 108.085 76.3302 107.915C76.5217 107.746 76.6812 107.502 76.8088 107.185C76.9365 106.846 77.0854 106.423 77.2556 105.914C78.1703 102.823 79.0956 99.7418 80.0316 96.6714C80.9676 93.5799 81.9036 90.4883 82.8396 87.3968H83.9246L90.7212 108.36H92.1252V108.9H84.4989V108.36H86.6368L84.5947 101.976H79.0425L78.8191 102.611C78.7127 102.929 78.5851 103.331 78.4362 103.818C78.2873 104.305 78.1384 104.792 77.9895 105.279C77.8618 105.766 77.7448 106.211 77.6385 106.613C77.5321 107.015 77.4789 107.291 77.4789 107.439C77.4789 107.693 77.5747 107.884 77.7661 108.011C77.9788 108.138 78.2235 108.233 78.5 108.297C78.7766 108.339 79.0531 108.36 79.3297 108.36C79.6275 108.36 79.8615 108.36 80.0316 108.36H80.0955V108.9H74.4476V108.36ZM79.202 101.436H84.4351L81.7547 93.114L79.202 101.436ZM121.925 94.5116H121.287C121.18 93.7281 121 92.9658 120.744 92.2247C120.51 91.4836 120.202 90.8271 119.819 90.2554C119.436 89.6837 118.968 89.2284 118.415 88.8896C117.862 88.5508 117.224 88.3814 116.5 88.3814C115.33 88.3814 114.405 88.7308 113.724 89.4296C113.044 90.1072 112.522 90.9542 112.161 91.9706C111.82 92.987 111.597 94.0775 111.491 95.2421C111.384 96.3856 111.32 97.4232 111.299 98.3549C111.278 98.9478 111.289 99.6042 111.331 100.324C111.374 101.044 111.459 101.775 111.586 102.516C111.714 103.236 111.884 103.945 112.097 104.644C112.331 105.343 112.629 105.967 112.99 106.518C113.352 107.047 113.788 107.481 114.299 107.82C114.809 108.138 115.405 108.297 116.086 108.297C117.043 108.297 117.862 108.011 118.543 107.439C119.223 106.867 119.564 105.946 119.564 104.676V99.403H117.681V98.8631H125.148V99.403H123.297L123.233 108.741C122.978 108.191 122.733 107.831 122.499 107.661C122.265 107.492 122.01 107.439 121.733 107.502C121.478 107.545 121.191 107.651 120.872 107.82C120.574 107.989 120.234 108.138 119.851 108.265C119.234 108.519 118.596 108.731 117.936 108.9C117.298 109.091 116.628 109.186 115.926 109.186C114.607 109.186 113.416 108.932 112.352 108.424C111.289 107.915 110.374 107.195 109.608 106.264C108.842 105.332 108.247 104.231 107.821 102.96C107.417 101.669 107.215 100.239 107.215 98.6725C107.215 97.2114 107.417 95.8033 107.821 94.4481C108.247 93.0929 108.842 91.9071 109.608 90.8907C110.374 89.8531 111.278 89.0273 112.32 88.4132C113.384 87.7991 114.554 87.4921 115.83 87.4921C116.341 87.4921 116.809 87.5768 117.234 87.7462C117.66 87.9156 118.064 88.1062 118.447 88.3179C118.83 88.5085 119.191 88.6885 119.532 88.8579C119.872 89.0273 120.223 89.112 120.585 89.112C120.883 89.112 121.074 89.0167 121.159 88.8261C121.244 88.6144 121.297 88.3603 121.319 88.0638H121.925V94.5116ZM126.024 108.36C126.492 108.36 126.875 108.328 127.173 108.265C127.471 108.201 127.716 108.085 127.907 107.915C128.098 107.746 128.258 107.502 128.386 107.185C128.513 106.846 128.662 106.423 128.832 105.914C129.747 102.823 130.672 99.7418 131.608 96.6714C132.544 93.5799 133.48 90.4883 134.416 87.3968H135.501L142.298 108.36H143.702V108.9H136.076V108.36H138.214L136.171 101.976H130.619L130.396 102.611C130.29 102.929 130.162 103.331 130.013 103.818C129.864 104.305 129.715 104.792 129.566 105.279C129.439 105.766 129.322 106.211 129.215 106.613C129.109 107.015 129.056 107.291 129.056 107.439C129.056 107.693 129.151 107.884 129.343 108.011C129.556 108.138 129.8 108.233 130.077 108.297C130.353 108.339 130.63 108.36 130.906 108.36C131.204 108.36 131.438 108.36 131.608 108.36H131.672V108.9H126.024V108.36ZM130.779 101.436H136.012L133.332 93.114L130.779 101.436ZM160.842 101.88V108.9H145.11V108.36H147.121V88.2544H145.11V87.7144H152.96V88.2544H150.726V108.36H154.46C155.438 108.36 156.289 108.318 157.012 108.233C157.757 108.127 158.374 107.862 158.863 107.439C159.352 107.015 159.714 106.37 159.948 105.501C160.203 104.633 160.331 103.426 160.331 101.88H160.842ZM163.3 87.7144H169.905C171.394 87.7144 172.809 87.8838 174.149 88.2226C175.489 88.5614 176.659 89.1437 177.659 89.9696C178.68 90.7742 179.489 91.8647 180.084 93.2411C180.68 94.6175 180.978 96.3327 180.978 98.3866C180.978 100.398 180.691 102.082 180.116 103.437C179.563 104.771 178.797 105.84 177.819 106.645C176.861 107.45 175.734 108.032 174.436 108.392C173.16 108.731 171.788 108.9 170.32 108.9H163.3V108.36H165.119V88.2861H163.3V87.7144ZM168.884 88.2861V108.36C170.416 108.36 171.703 108.159 172.745 107.757C173.788 107.333 174.628 106.698 175.266 105.851C175.904 105.004 176.362 103.945 176.638 102.675C176.915 101.383 177.053 99.8689 177.053 98.1325C177.053 96.7138 176.904 95.4009 176.606 94.194C176.308 92.987 175.851 91.9494 175.234 91.0813C174.638 90.1919 173.873 89.5037 172.937 89.0167C172.022 88.5085 170.937 88.2544 169.682 88.2544L168.884 88.2861ZM184.047 87.7144H191.992V88.2544H189.695V108.36H191.992V108.9H184.047V108.36H186.057V88.2544H184.047V87.7144ZM194.501 108.36C195.139 108.36 195.639 108.349 196.001 108.328C196.362 108.286 196.618 108.18 196.767 108.011C196.937 107.82 197.033 107.545 197.054 107.185C197.096 106.804 197.118 106.264 197.118 105.565V88.6673L196.703 88.2544H194.501V87.7144H200.915L210.168 102.833V90.8907C210.168 90.2131 210.147 89.6943 210.105 89.3343C210.083 88.9743 210.009 88.7202 209.881 88.572C209.754 88.4026 209.562 88.3073 209.307 88.2861C209.073 88.265 208.743 88.2544 208.318 88.2544H207.616V87.7144H213.391V88.2544H212.657C212.232 88.2544 211.892 88.265 211.636 88.2861C211.381 88.3073 211.19 88.4026 211.062 88.572C210.934 88.7202 210.849 88.9743 210.807 89.3343C210.785 89.6943 210.775 90.2131 210.775 90.8907V109.059H209.179L197.724 90.1919V105.025C197.724 105.872 197.735 106.528 197.756 106.994C197.777 107.439 197.862 107.767 198.011 107.979C198.181 108.169 198.447 108.286 198.809 108.328C199.17 108.349 199.692 108.36 200.372 108.36V108.9H194.501V108.36ZM224.368 87.3015C225.581 87.3015 226.687 87.6297 227.687 88.2861C228.708 88.9214 229.58 89.7684 230.303 90.8271C231.048 91.8647 231.622 93.0505 232.026 94.3845C232.43 95.6974 232.632 97.0208 232.632 98.3549C232.632 99.7101 232.43 101.044 232.026 102.357C231.622 103.649 231.048 104.813 230.303 105.851C229.58 106.867 228.708 107.693 227.687 108.328C226.687 108.964 225.581 109.281 224.368 109.281C223.134 109.281 222.007 108.964 220.986 108.328C219.965 107.672 219.092 106.814 218.369 105.756C217.646 104.697 217.082 103.5 216.678 102.166C216.274 100.832 216.072 99.4771 216.072 98.1008C216.072 96.7879 216.284 95.4856 216.71 94.194C217.157 92.9023 217.752 91.7483 218.497 90.7319C219.263 89.7155 220.145 88.8896 221.145 88.2544C222.145 87.6191 223.219 87.3015 224.368 87.3015ZM224.432 87.8097C223.751 87.8097 223.166 87.9897 222.677 88.3497C222.188 88.6885 221.773 89.1543 221.432 89.7472C221.092 90.319 220.815 90.9754 220.603 91.7165C220.411 92.4364 220.252 93.1882 220.124 93.9716C220.018 94.7339 219.943 95.4962 219.901 96.2585C219.858 96.9997 219.837 97.6667 219.837 98.2596C219.837 98.8736 219.848 99.5618 219.869 100.324C219.911 101.065 219.986 101.828 220.092 102.611C220.199 103.373 220.347 104.125 220.539 104.866C220.73 105.607 220.986 106.274 221.305 106.867C221.645 107.439 222.06 107.905 222.549 108.265C223.038 108.604 223.634 108.773 224.336 108.773C225.038 108.773 225.634 108.593 226.123 108.233C226.612 107.873 227.016 107.407 227.336 106.835C227.655 106.243 227.899 105.576 228.069 104.834C228.24 104.072 228.367 103.31 228.452 102.548C228.537 101.764 228.591 101.002 228.612 100.261C228.633 99.4983 228.644 98.8207 228.644 98.2278C228.644 97.6984 228.623 97.0738 228.58 96.3538C228.559 95.6339 228.495 94.8927 228.389 94.1304C228.282 93.3681 228.133 92.6058 227.942 91.8435C227.772 91.0812 227.527 90.4037 227.208 89.8108C226.889 89.2179 226.506 88.7414 226.059 88.3814C225.612 88.0003 225.07 87.8097 224.432 87.8097Z" fill="black"/>
<path d="M2.27921 115.706H117.76" stroke="url(#paint0_linear)" stroke-linecap="round" stroke-linejoin="round"/>
<path d="M225.643 115.706H231.721" stroke="url(#paint1_linear)" stroke-linecap="round" stroke-linejoin="round"/>
<path d="M123.265 113.208V114.969C123.312 114.967 123.394 114.966 123.51 114.966C123.626 114.963 123.716 114.962 123.781 114.962C123.845 114.959 123.935 114.954 124.051 114.947C124.168 114.937 124.26 114.927 124.33 114.918C124.401 114.905 124.487 114.888 124.586 114.866C124.687 114.841 124.769 114.814 124.83 114.785C124.895 114.753 124.961 114.713 125.031 114.666C125.102 114.617 125.158 114.563 125.198 114.504C125.237 114.445 125.269 114.375 125.294 114.293C125.321 114.21 125.335 114.119 125.335 114.02C125.335 113.946 125.328 113.876 125.313 113.81C125.298 113.743 125.267 113.672 125.22 113.596C125.173 113.519 125.112 113.454 125.038 113.4C124.964 113.346 124.861 113.3 124.73 113.263C124.602 113.226 124.452 113.208 124.281 113.208H123.265ZM123.265 115.457V117.421H124.248C124.337 117.421 124.411 117.421 124.471 117.421C124.532 117.419 124.62 117.411 124.734 117.399C124.848 117.384 124.944 117.366 125.023 117.344C125.105 117.319 125.195 117.283 125.294 117.236C125.393 117.187 125.472 117.129 125.531 117.063C125.593 116.996 125.645 116.912 125.687 116.808C125.729 116.702 125.75 116.583 125.75 116.45C125.75 116.123 125.623 115.867 125.368 115.682C125.114 115.497 124.771 115.405 124.341 115.405C124.294 115.405 123.935 115.422 123.265 115.457ZM122.634 112.728H124.493C124.673 112.728 124.838 112.748 124.986 112.787C125.137 112.824 125.261 112.872 125.357 112.931C125.456 112.99 125.543 113.06 125.617 113.141C125.694 113.223 125.752 113.301 125.791 113.378C125.831 113.454 125.863 113.535 125.888 113.621C125.912 113.708 125.927 113.779 125.932 113.836C125.94 113.89 125.943 113.941 125.943 113.991C125.943 114.205 125.87 114.419 125.724 114.633C125.579 114.845 125.424 114.981 125.261 115.043C125.587 115.102 125.854 115.26 126.062 115.516C126.272 115.769 126.377 116.059 126.377 116.384C126.377 116.46 126.37 116.54 126.355 116.623C126.343 116.707 126.317 116.802 126.277 116.908C126.238 117.014 126.187 117.115 126.125 117.211C126.063 117.307 125.979 117.403 125.873 117.499C125.767 117.592 125.644 117.673 125.506 117.742C125.369 117.811 125.201 117.868 125.001 117.912C124.803 117.954 124.586 117.975 124.348 117.975H122.634V112.728ZM131.032 117.975V112.728H134.122V113.282H131.662V114.995H133.918V115.549H131.662V117.421H134.122V117.975H131.032ZM140.19 112.728H140.906L142.779 117.975H142.141L141.607 116.45H139.433L138.899 117.975H138.316L140.19 112.728ZM140.52 113.341L139.622 115.9H141.414L140.52 113.341ZM147.159 112.728H147.79V116.129C147.79 116.338 147.807 116.518 147.842 116.668C147.879 116.818 147.955 116.958 148.072 117.089C148.319 117.367 148.684 117.506 149.166 117.506C149.515 117.506 149.805 117.431 150.038 117.281C150.273 117.128 150.425 116.914 150.494 116.638C150.526 116.508 150.542 116.338 150.542 116.129V112.728H151.166C151.166 113.518 151.166 114.164 151.166 114.666C151.168 115.169 151.169 115.491 151.169 115.634C151.169 115.774 151.169 115.887 151.169 115.974C151.172 116.057 151.173 116.128 151.173 116.184C151.173 116.297 151.17 116.397 151.166 116.483C151.161 116.567 151.143 116.678 151.114 116.816C151.086 116.953 151.048 117.074 150.999 117.177C150.949 117.278 150.874 117.387 150.772 117.502C150.673 117.618 150.555 117.714 150.416 117.79C150.28 117.864 150.104 117.926 149.889 117.975C149.677 118.024 149.436 118.049 149.166 118.049C148.877 118.049 148.617 118.019 148.387 117.96C148.157 117.899 147.976 117.826 147.845 117.742C147.714 117.659 147.601 117.558 147.504 117.44C147.41 117.321 147.344 117.22 147.307 117.137C147.273 117.051 147.244 116.961 147.222 116.867C147.18 116.705 147.159 116.475 147.159 116.177V112.728ZM155.382 112.728H159.536V113.282H157.775V117.975H157.145V113.282H155.382V112.728ZM163.042 112.728H163.788L165.13 114.895L166.503 112.728H167.207L165.412 115.49V117.975H164.782V115.49L163.042 112.728ZM178.712 112.68C179.118 112.68 179.554 112.75 180.022 112.89L179.818 113.463C179.373 113.335 178.987 113.271 178.661 113.271C178.294 113.271 177.984 113.348 177.729 113.503C177.477 113.656 177.351 113.854 177.351 114.098C177.351 114.233 177.392 114.354 177.474 114.46C177.554 114.566 177.662 114.652 177.796 114.718C177.93 114.785 178.082 114.851 178.252 114.918C178.423 114.981 178.597 115.041 178.771 115.095C178.949 115.149 179.124 115.218 179.294 115.302C179.466 115.385 179.618 115.478 179.752 115.578C179.885 115.677 179.992 115.806 180.074 115.966C180.156 116.126 180.197 116.307 180.197 116.509C180.197 116.649 180.174 116.79 180.13 116.93C180.084 117.068 180.011 117.206 179.906 117.344C179.803 117.479 179.674 117.598 179.521 117.702C179.367 117.805 179.174 117.889 178.939 117.953C178.706 118.017 178.446 118.049 178.159 118.049C177.873 118.049 177.608 118.019 177.366 117.96C177.126 117.901 176.857 117.813 176.558 117.694L176.772 117.085C177.39 117.314 177.88 117.429 178.238 117.429C178.613 117.429 178.919 117.353 179.154 117.203C179.391 117.053 179.51 116.852 179.51 116.601C179.51 116.434 179.457 116.29 179.35 116.169C179.247 116.046 179.11 115.948 178.943 115.874C178.776 115.798 178.592 115.727 178.39 115.663C178.186 115.597 177.984 115.527 177.781 115.453C177.582 115.377 177.396 115.289 177.229 115.191C177.064 115.092 176.927 114.959 176.82 114.792C176.717 114.625 176.665 114.428 176.665 114.201C176.665 113.999 176.713 113.806 176.81 113.621C176.909 113.437 177.044 113.276 177.217 113.138C177.39 112.997 177.608 112.887 177.867 112.805C178.126 112.722 178.408 112.68 178.712 112.68ZM184.149 112.728H188.305V113.282H186.542V117.975H185.911V113.282H184.149V112.728ZM192.514 112.728H193.144V116.129C193.144 116.338 193.162 116.518 193.196 116.668C193.234 116.818 193.31 116.958 193.427 117.089C193.673 117.367 194.038 117.506 194.521 117.506C194.869 117.506 195.161 117.431 195.393 117.281C195.627 117.128 195.779 116.914 195.849 116.638C195.881 116.508 195.897 116.338 195.897 116.129V112.728H196.52C196.52 113.518 196.52 114.164 196.52 114.666C196.522 115.169 196.524 115.491 196.524 115.634C196.524 115.774 196.524 115.887 196.524 115.974C196.527 116.057 196.528 116.128 196.528 116.184C196.528 116.297 196.525 116.397 196.52 116.483C196.516 116.567 196.498 116.678 196.469 116.816C196.441 116.953 196.402 117.074 196.353 117.177C196.303 117.278 196.229 117.387 196.127 117.502C196.028 117.618 195.91 117.714 195.771 117.79C195.635 117.864 195.46 117.926 195.244 117.975C195.031 118.024 194.79 118.049 194.521 118.049C194.231 118.049 193.972 118.019 193.741 117.96C193.512 117.899 193.331 117.826 193.2 117.742C193.068 117.659 192.956 117.558 192.859 117.44C192.764 117.321 192.699 117.22 192.663 117.137C192.628 117.051 192.599 116.961 192.577 116.867C192.535 116.705 192.514 116.475 192.514 116.177V112.728ZM202.127 113.282V117.421H202.896C203.007 117.421 203.098 117.42 203.17 117.417C203.244 117.415 203.343 117.408 203.468 117.395C203.594 117.383 203.702 117.365 203.79 117.34C203.881 117.315 203.984 117.28 204.098 117.233C204.214 117.186 204.317 117.129 204.405 117.063C204.495 116.996 204.584 116.912 204.673 116.808C204.762 116.705 204.84 116.588 204.907 116.457C205.069 116.145 205.151 115.764 205.151 115.316C205.151 115.006 205.106 114.727 205.014 114.478C204.925 114.227 204.805 114.024 204.654 113.869C204.505 113.711 204.346 113.587 204.176 113.496C204.007 113.405 203.831 113.343 203.645 113.311C203.536 113.292 203.372 113.282 203.152 113.282H202.127ZM203.13 112.728C203.471 112.728 203.781 112.762 204.06 112.831C204.34 112.898 204.574 112.992 204.762 113.116C204.952 113.239 205.116 113.378 205.251 113.533C205.388 113.688 205.493 113.861 205.567 114.053C205.643 114.243 205.7 114.43 205.733 114.615C205.768 114.799 205.786 114.991 205.786 115.191C205.786 115.42 205.768 115.64 205.733 115.852C205.7 116.064 205.639 116.279 205.552 116.498C205.467 116.717 205.359 116.914 205.226 117.089C205.095 117.261 204.923 117.417 204.714 117.558C204.504 117.696 204.265 117.798 203.998 117.864C203.86 117.899 203.705 117.924 203.534 117.942C203.363 117.959 203.223 117.969 203.11 117.971C203 117.974 202.843 117.975 202.639 117.975H201.497V112.728H203.13ZM210.682 112.728H211.313V117.975H210.682V112.728ZM218.597 112.672C218.945 112.672 219.27 112.734 219.573 112.857C219.876 112.978 220.139 113.149 220.358 113.37C220.581 113.592 220.756 113.869 220.882 114.201C221.008 114.531 221.071 114.894 221.071 115.29C221.071 115.827 220.963 116.305 220.749 116.723C220.536 117.139 220.238 117.462 219.858 117.691C219.48 117.917 219.05 118.03 218.571 118.03C218.254 118.03 217.951 117.975 217.661 117.864C217.372 117.751 217.111 117.587 216.878 117.373C216.646 117.159 216.461 116.88 216.322 116.535C216.184 116.188 216.114 115.798 216.114 115.364C216.114 114.958 216.178 114.586 216.304 114.249C216.43 113.912 216.603 113.629 216.824 113.4C217.044 113.168 217.305 112.99 217.609 112.864C217.913 112.736 218.243 112.672 218.597 112.672ZM218.564 113.223C218.339 113.223 218.121 113.265 217.913 113.348C217.707 113.432 217.515 113.555 217.339 113.717C217.166 113.878 217.026 114.094 216.92 114.367C216.816 114.638 216.765 114.945 216.765 115.287C216.765 115.614 216.812 115.917 216.909 116.195C217.005 116.471 217.137 116.702 217.302 116.889C217.468 117.076 217.663 117.222 217.887 117.325C218.115 117.429 218.358 117.48 218.618 117.48C218.795 117.48 218.966 117.454 219.135 117.403C219.305 117.351 219.468 117.27 219.624 117.159C219.781 117.046 219.916 116.908 220.033 116.745C220.151 116.583 220.244 116.382 220.314 116.144C220.385 115.905 220.422 115.642 220.422 115.357C220.422 115.066 220.384 114.801 220.311 114.559C220.237 114.318 220.138 114.116 220.013 113.954C219.893 113.791 219.75 113.655 219.588 113.544C219.427 113.431 219.26 113.349 219.086 113.3C218.916 113.248 218.741 113.223 218.564 113.223Z" fill="black"/>
<path d="M76.1699 43.2147C76.8333 41.2364 79.0584 39.5908 81.1348 39.5596C81.6545 39.5492 82.1297 39.6454 82.5607 39.8247C83.6629 39.3359 84.9112 39.1539 85.9977 39.4244C87.5595 39.8117 88.5128 40.9919 88.6799 42.7416C89.0612 46.7164 90.0119 51.175 91.0199 54.4349C91.0957 54.5389 91.1793 54.6533 91.2498 54.7548C91.6703 54.63 92.1064 54.5415 92.5661 54.5415C95.123 54.5415 97.1914 56.6031 97.1914 59.1456C97.1914 59.9228 96.9798 60.6404 96.6403 61.28C99.1292 63.1673 102.099 65.1405 105.181 67.0903C103.504 63.7938 101.887 60.4766 100.344 57.1205C98.4189 52.9168 96.596 48.6636 94.9087 44.3586C93.2242 40.0509 91.6782 35.6887 90.3565 31.2483C89.7063 29.0282 89.1055 26.7873 88.6015 24.5229C88.1157 22.2534 87.664 19.9735 87.4263 17.6545C87.1782 15.3383 87.0606 12.9959 87.2618 10.6458L87.489 8.86238L87.865 7.17259C88.2385 6.00792 88.6302 4.84326 89.3954 3.84498C90.1111 2.84929 91.1401 1.9394 92.4042 1.59104C93.65 1.21409 94.9479 1.29208 96.1467 1.56245C98.5442 2.16037 100.618 3.44722 102.475 4.90565C106.178 7.8537 109.189 11.5531 111.577 15.5981C112.76 17.6259 113.773 19.7655 114.528 22.0116C115.084 23.6885 115.502 25.4303 115.672 27.2137L116.298 26.5533L118.281 24.6789C119.662 23.4934 121.065 22.3132 122.65 21.3514C124.217 20.379 125.902 19.5081 127.782 19.0791C129.636 18.6165 131.736 18.6581 133.577 19.4769C135.445 20.2595 136.887 21.7464 137.861 23.3895C138.85 25.0376 139.462 26.8522 139.788 28.6955C140.109 30.5412 140.167 32.4233 139.958 34.2822C139.749 36.1409 139.279 37.9919 138.446 39.7207C138.229 40.1626 138.002 40.5423 137.727 41.0128L136.967 42.115C136.484 42.8534 135.907 43.5786 135.34 44.3014C134.781 45.0397 134.196 45.7312 133.606 46.4123C133.026 47.1091 132.436 47.7902 131.825 48.4505C129.422 51.1385 126.91 53.7045 124.355 56.2236C123.872 56.6992 123.381 57.1621 122.896 57.6378C125.828 55.9844 128.874 54.5181 132.089 53.382C134.46 52.5632 136.912 51.8821 139.464 51.6014C142.011 51.3179 144.659 51.4297 147.192 52.1577C149.723 52.8752 152.065 54.2789 153.91 56.1195C154.343 56.6005 154.847 57.032 155.218 57.5597L156.362 59.117C156.704 59.6577 156.999 60.2219 157.321 60.7756C157.479 61.0616 157.634 61.3033 157.794 61.6309L158.176 62.4576C158.692 63.6353 159.135 64.8754 159.374 66.1725C159.611 67.4698 159.634 68.8841 159.229 70.2411C158.848 71.6111 157.968 72.8199 156.915 73.6883C155.862 74.5722 154.662 75.1726 153.445 75.6043C151 76.4699 148.493 76.7871 146.014 76.9534C143.531 77.1121 141.057 77.0652 138.6 76.9249C133.682 76.6363 128.811 75.9733 123.995 75.0791C121.06 74.5331 118.142 73.9197 115.238 73.2437C121.318 76.9171 126.129 79.8937 126.278 81.0584C126.583 83.4865 111.942 80.1433 104.517 73.7689C99.636 69.5756 96.656 65.3511 95.1804 62.9438C94.436 63.4454 93.5377 63.7496 92.5687 63.7496C90.0119 63.7496 87.9434 61.6881 87.9434 59.1456C87.9434 57.4402 88.8835 55.9636 90.2704 55.1733C90.2339 55.0641 90.2024 54.9549 90.166 54.8431C87.4969 51.175 84.6317 44.7901 83.7307 42.3905C83.433 41.5925 83.0047 41.1141 82.5476 40.8307C81.9208 41.1713 81.3724 41.6314 81.0094 42.18C80.5863 42.7728 80.3173 43.6385 80.7586 44.7044C81.1425 44.3482 81.725 44.2597 82.1925 44.5483C82.7514 44.8993 82.9211 45.6324 82.5712 46.1913C82.2212 46.7476 81.4847 46.9167 80.9257 46.5682C80.7482 46.4539 80.6203 46.2979 80.5288 46.1186C79.4398 44.6368 79.3535 43.0509 80.2494 41.6783C80.5524 41.2233 80.9572 40.8204 81.4168 40.4798C81.3279 40.4747 81.2392 40.4694 81.153 40.4694C79.4632 40.5007 77.5749 41.8914 77.0371 43.5033C76.781 44.1869 76.7497 45.089 77.4496 46.0068C77.729 45.5623 78.2671 45.3257 78.7972 45.4894C79.4293 45.6817 79.7844 46.3472 79.5911 46.9739C79.3953 47.6029 78.7293 47.9565 78.0973 47.7642C77.8936 47.707 77.7318 47.5822 77.5985 47.434C76.1542 46.2824 75.6606 44.7745 76.1699 43.2147ZM130.315 47.0882C130.924 46.4434 131.509 45.7807 132.084 45.1124C132.666 44.4469 133.248 43.7814 133.773 43.1055C134.314 42.4296 134.862 41.7666 135.364 41.0154L136.134 39.9209C136.304 39.6193 136.547 39.2346 136.725 38.8809C138.171 35.9018 138.529 32.335 137.994 29.0048C137.717 27.3357 137.176 25.7136 136.341 24.2915C135.515 22.8695 134.345 21.6684 132.888 21.0471C131.451 20.392 129.78 20.3218 128.163 20.7013C126.536 21.0523 124.98 21.8296 123.512 22.724C122.026 23.6053 120.668 24.723 119.331 25.8488L117.403 27.6452L115.565 29.5429L114.207 30.9415L114.238 29.0152C114.275 26.821 113.841 24.601 113.149 22.464C112.454 20.3218 111.501 18.2577 110.375 16.2871C108.111 12.3616 105.207 8.74019 101.694 5.89093C99.9416 4.47671 97.9828 3.27044 95.8725 2.71151C94.8226 2.46194 93.7387 2.39955 92.7489 2.68031C91.7461 2.94028 90.926 3.6474 90.2965 4.4923C89.6305 5.32679 89.2623 6.39008 88.9124 7.40656L88.5154 9.08855L88.2908 10.7367C88.074 12.9907 88.1549 15.2758 88.3718 17.5506C88.5754 19.8278 88.9932 22.0896 89.4477 24.3384C89.9204 26.587 90.4872 28.8177 91.1061 31.03C92.3598 35.4598 93.8536 39.8273 95.4755 44.1428C97.1079 48.4557 98.8706 52.7218 100.741 56.9437C102.303 60.4558 103.943 63.9316 105.645 67.3684C106.27 67.7609 106.896 68.1561 107.528 68.5409C112.749 64.0591 117.889 59.4497 122.843 54.6742C125.4 52.2123 127.923 49.6983 130.315 47.0882ZM124.141 74.2004C128.97 74.8554 133.818 75.3859 138.662 75.5288C141.083 75.5938 143.504 75.5678 145.894 75.3469C148.273 75.1233 150.655 74.736 152.802 73.8988C154.934 73.0878 156.829 71.6917 157.336 69.6977C157.897 67.7168 157.224 65.3978 156.28 63.3518L155.882 62.5355C155.771 62.3198 155.596 62.0468 155.455 61.8051C155.156 61.3112 154.878 60.799 154.563 60.3155L153.518 58.9532C153.18 58.4826 152.732 58.1317 152.348 57.7079C150.715 56.1404 148.73 54.9965 146.552 54.4167C144.377 53.8214 142.052 53.7798 139.749 54.0372C137.44 54.2998 135.152 54.9444 132.919 55.727C128.443 57.3101 124.215 59.6551 120.153 62.2158C118.122 63.5053 116.139 64.8726 114.204 66.3156C112.668 67.4595 111.159 68.6657 109.699 69.8954C111.167 70.7923 112.626 71.6734 114.032 72.5211C117.388 73.1683 120.762 73.7298 124.141 74.2004ZM84.5927 42.0708C85.8645 45.4556 87.6848 49.103 89.372 51.9054C88.5128 48.3413 87.946 44.5691 87.7763 42.8299C87.6143 41.1116 86.601 40.5084 85.7835 40.3083C85.0783 40.1366 84.2869 40.2017 83.5271 40.4331C83.971 40.8437 84.3392 41.3897 84.5927 42.0708Z" fill="black"/>
<path d="M134.115 61.9299C139.503 65.6734 136.86 70.9819 132.285 70.8079C127.709 70.6362 116.121 67.5998 116.121 67.5998C116.121 67.5998 128.728 58.1838 134.115 61.9299Z" fill="black"/>
<path d="M110.171 63.3467C110.171 63.3467 102.898 53.4315 101.882 43.4071C100.863 33.3878 109.814 30.5542 112.864 44.7225C117.644 37.5344 126.124 41.1818 123.099 48.5675C120.085 55.9584 110.171 63.3467 110.171 63.3467Z" fill="black"/>
<defs>
<linearGradient id="paint0_linear" x1="-nan" y1="-nan" x2="-nan" y2="-nan" gradientUnits="userSpaceOnUse">
<stop/>
<stop offset="1" stop-opacity="0"/>
</linearGradient>
<linearGradient id="paint1_linear" x1="-nan" y1="-nan" x2="-nan" y2="-nan" gradientUnits="userSpaceOnUse">
<stop/>
<stop offset="1" stop-opacity="0"/>
</linearGradient>
</defs>
</svg>
