<svg width="577" height="300" viewBox="0 0 577 300" fill="none" xmlns="http://www.w3.org/2000/svg">
<g clip-path="url(#clip0)">
<rect x="-13" y="-37" width="615" height="386" fill="url(#paint0_linear)"/>
<g filter="url(#filter0_d)">
<path d="M39.3305 269.5C39.3305 269.028 39.3043 268.531 39.2519 268.007C39.1995 267.482 39.0948 267.011 38.9377 266.592C38.7805 266.12 38.5449 265.727 38.2306 265.413C37.9686 265.098 37.602 264.941 37.1307 264.941C36.8688 264.941 36.5022 265.072 36.0308 265.334C35.6118 265.596 35.1143 265.937 34.5382 266.356C33.4907 267.194 32.129 268.085 30.453 269.028C28.8294 269.919 26.8916 270.365 24.6395 270.365C21.5495 270.365 18.7475 269.683 16.2335 268.321C13.772 266.906 11.677 265.02 9.9487 262.661C8.22036 260.303 6.88483 257.552 5.94211 254.408C4.99938 251.211 4.52802 247.831 4.52802 244.268C4.52802 240.705 4.97319 237.246 5.86355 233.892C6.80627 230.486 8.1418 227.499 9.87014 224.931C11.5985 222.311 13.7196 220.215 16.2335 218.643C18.7475 217.071 21.628 216.285 24.8752 216.285C26.2893 216.285 27.5463 216.521 28.6461 216.992C29.746 217.412 30.7673 217.883 31.71 218.407C32.6527 218.931 33.5431 219.429 34.381 219.901C35.219 220.32 36.1094 220.53 37.0521 220.53C37.6806 220.53 38.1521 220.372 38.4663 220.058C38.7805 219.691 38.99 219.141 39.0948 218.407H40.5089V234.285H38.9377C38.8329 232.399 38.4139 230.512 37.6806 228.626C36.9997 226.687 36.1094 224.958 35.0095 223.438C33.9097 221.866 32.6003 220.608 31.0815 219.665C29.615 218.669 28.0438 218.171 26.3679 218.171C24.6919 218.171 23.2516 218.617 22.047 219.508C20.8424 220.399 19.8211 221.578 18.9832 223.045C18.1452 224.512 17.4643 226.189 16.9406 228.076C16.4692 229.91 16.0764 231.796 15.7622 233.735C15.5003 235.622 15.317 237.508 15.2123 239.395C15.1599 241.229 15.1337 242.853 15.1337 244.268C15.1337 246.941 15.2908 249.666 15.6051 252.443C15.9193 255.168 16.5478 257.683 17.4905 259.989C18.4332 262.242 19.7688 264.102 21.4971 265.57C23.2254 266.985 25.5037 267.692 28.3319 267.692C29.8507 267.692 31.2386 267.142 32.4956 266.041C33.7526 264.889 34.8524 263.474 35.7951 261.797C36.7379 260.068 37.4973 258.233 38.0734 256.294C38.702 254.303 39.121 252.469 39.3305 250.792H40.5089V269.5H39.3305ZM46.5408 268.164C47.6931 268.164 48.6358 268.085 49.369 267.928C50.1023 267.771 50.7046 267.482 51.1759 267.063C51.6473 266.644 52.0401 266.041 52.3543 265.255C52.6686 264.417 53.0352 263.369 53.4542 262.111C55.7062 254.46 57.9845 246.836 60.2889 239.237C62.5934 231.587 64.8978 223.936 67.2023 216.285H69.8733L86.6068 268.164H90.0634V269.5H71.2874V268.164H76.551L71.5231 252.364H57.8536L57.3036 253.936C57.0418 254.722 56.7275 255.718 56.3609 256.923C55.9943 258.129 55.6277 259.334 55.2611 260.539C54.9468 261.744 54.6588 262.845 54.3969 263.84C54.135 264.836 54.0041 265.517 54.0041 265.884C54.0041 266.513 54.2398 266.985 54.7111 267.299C55.2349 267.614 55.8372 267.849 56.518 268.007C57.1989 268.111 57.8798 268.164 58.5606 268.164C59.2938 268.164 59.87 268.164 60.2889 268.164H60.4461V269.5H46.5408V268.164ZM58.2464 251.028H71.1303L64.5312 230.434L58.2464 251.028ZM106.493 268.164H111.285V269.5H93.5306V268.164H97.8514V218.407H93.5306V217.071H116.235C117.963 217.071 119.665 217.281 121.341 217.7C123.017 218.119 124.483 218.827 125.74 219.822C127.05 220.765 128.097 222.049 128.883 223.674C129.721 225.246 130.14 227.237 130.14 229.648C130.14 231.482 129.852 233.08 129.276 234.443C128.752 235.805 128.019 236.984 127.076 237.98C126.133 238.923 125.033 239.709 123.776 240.338C122.519 240.967 121.184 241.438 119.77 241.753V242.617C121.969 243.194 123.672 244.137 124.876 245.447C126.133 246.705 127.076 248.146 127.704 249.77C128.333 251.395 128.726 253.124 128.883 254.958C129.04 256.74 129.145 258.443 129.197 260.068C129.249 261.22 129.302 262.321 129.354 263.369C129.459 264.365 129.616 265.255 129.826 266.041C130.035 266.775 130.349 267.378 130.768 267.849C131.187 268.269 131.763 268.478 132.497 268.478C132.968 268.478 133.413 268.426 133.832 268.321C134.251 268.164 134.67 268.007 135.089 267.849C135.141 267.849 135.194 267.823 135.246 267.771L135.718 268.95C134.827 269.369 133.937 269.657 133.047 269.814C132.209 269.972 131.344 270.05 130.454 270.05C128.15 270.05 126.343 269.71 125.033 269.028C123.724 268.347 122.703 267.404 121.969 266.199C121.289 264.993 120.817 263.552 120.555 261.875C120.346 260.198 120.163 258.338 120.005 256.294C119.953 255.666 119.901 255.011 119.848 254.329C119.796 253.648 119.717 252.941 119.613 252.207C119.351 249.954 118.801 248.198 117.963 246.941C117.177 245.683 116.182 244.766 114.978 244.189C113.825 243.561 112.516 243.194 111.05 243.089C109.583 242.932 108.064 242.853 106.493 242.853V268.164ZM106.493 218.407V241.596H109.007C110.473 241.596 111.914 241.386 113.328 240.967C114.794 240.547 116.077 239.892 117.177 239.002C118.277 238.058 119.168 236.879 119.848 235.464C120.529 233.997 120.87 232.215 120.87 230.119C120.87 227.761 120.555 225.822 119.927 224.303C119.298 222.783 118.434 221.604 117.334 220.765C116.235 219.875 114.951 219.272 113.485 218.958C112.018 218.591 110.447 218.407 108.771 218.407H106.493ZM180.419 252.128V269.5H141.689V268.164H146.638V218.407H141.689V217.071H161.014V218.407H155.515V268.164H164.707C167.116 268.164 169.211 268.059 170.992 267.849C172.825 267.587 174.344 266.932 175.548 265.884C176.753 264.836 177.643 263.238 178.219 261.089C178.848 258.941 179.162 255.954 179.162 252.128H180.419ZM183.958 268.164C185.11 268.164 186.052 268.085 186.786 267.928C187.519 267.771 188.121 267.482 188.593 267.063C189.064 266.644 189.457 266.041 189.771 265.255C190.085 264.417 190.452 263.369 190.871 262.111C193.123 254.46 195.401 246.836 197.706 239.237C200.01 231.587 202.315 223.936 204.619 216.285H207.29L224.023 268.164H227.48V269.5H208.704V268.164H213.968L208.94 252.364H195.27L194.72 253.936C194.458 254.722 194.144 255.718 193.778 256.923C193.411 258.129 193.044 259.334 192.678 260.539C192.364 261.744 192.075 262.845 191.814 263.84C191.552 264.836 191.421 265.517 191.421 265.884C191.421 266.513 191.656 266.985 192.128 267.299C192.652 267.614 193.254 267.849 193.935 268.007C194.616 268.111 195.296 268.164 195.977 268.164C196.711 268.164 197.287 268.164 197.706 268.164H197.863V269.5H183.958V268.164ZM195.663 251.028H208.547L201.948 230.434L195.663 251.028ZM300.847 233.892H299.276C299.014 231.953 298.569 230.067 297.941 228.233C297.365 226.399 296.605 224.774 295.662 223.359C294.72 221.944 293.568 220.818 292.206 219.979C290.844 219.141 289.273 218.722 287.492 218.722C284.612 218.722 282.333 219.586 280.657 221.316C278.981 222.993 277.698 225.089 276.808 227.604C275.97 230.119 275.42 232.818 275.158 235.7C274.896 238.53 274.739 241.098 274.687 243.403C274.634 244.871 274.661 246.495 274.765 248.277C274.87 250.059 275.08 251.866 275.394 253.701C275.708 255.482 276.127 257.238 276.651 258.967C277.227 260.696 277.96 262.242 278.85 263.605C279.741 264.915 280.815 265.989 282.071 266.827C283.328 267.614 284.795 268.007 286.471 268.007C288.828 268.007 290.844 267.299 292.52 265.884C294.196 264.469 295.034 262.19 295.034 259.046V245.997H290.399V244.661H308.782V245.997H304.226L304.068 269.107C303.44 267.744 302.838 266.854 302.262 266.434C301.685 266.015 301.057 265.884 300.376 266.041C299.748 266.146 299.041 266.408 298.255 266.827C297.522 267.247 296.684 267.613 295.741 267.928C294.222 268.557 292.651 269.081 291.027 269.5C289.456 269.972 287.806 270.207 286.078 270.207C282.831 270.207 279.898 269.579 277.279 268.321C274.661 267.063 272.409 265.282 270.523 262.976C268.638 260.67 267.171 257.945 266.124 254.801C265.129 251.604 264.631 248.067 264.631 244.189C264.631 240.574 265.129 237.089 266.124 233.735C267.171 230.381 268.638 227.447 270.523 224.931C272.409 222.364 274.634 220.32 277.201 218.8C279.819 217.281 282.7 216.521 285.842 216.521C287.099 216.521 288.252 216.73 289.299 217.15C290.347 217.569 291.342 218.04 292.284 218.565C293.227 219.036 294.117 219.482 294.955 219.901C295.793 220.32 296.658 220.53 297.548 220.53C298.281 220.53 298.753 220.294 298.962 219.822C299.171 219.298 299.302 218.669 299.355 217.936H300.847V233.892ZM310.94 268.164C312.092 268.164 313.035 268.085 313.768 267.928C314.502 267.771 315.104 267.482 315.575 267.063C316.047 266.644 316.44 266.041 316.754 265.255C317.068 264.417 317.435 263.369 317.854 262.111C320.106 254.46 322.384 246.836 324.688 239.237C326.993 231.587 329.297 223.936 331.602 216.285H334.273L351.006 268.164H354.463V269.5H335.687V268.164H340.95L335.923 252.364H322.253L321.703 253.936C321.441 254.722 321.127 255.718 320.76 256.923C320.394 258.129 320.027 259.334 319.661 260.539C319.346 261.744 319.058 262.845 318.796 263.84C318.534 264.836 318.404 265.517 318.404 265.884C318.404 266.513 318.639 266.985 319.111 267.299C319.634 267.614 320.237 267.849 320.917 268.007C321.598 268.111 322.279 268.164 322.96 268.164C323.693 268.164 324.269 268.164 324.688 268.164H324.845V269.5H310.94V268.164ZM322.646 251.028H335.53L328.931 230.434L322.646 251.028ZM396.661 252.128V269.5H357.93V268.164H362.879V218.407H357.93V217.071H377.256V218.407H371.757V268.164H380.949C383.358 268.164 385.453 268.059 387.233 267.849C389.067 267.587 390.585 266.932 391.79 265.884C392.995 264.836 393.885 263.238 394.461 261.089C395.09 258.941 395.404 255.954 395.404 252.128H396.661ZM402.714 217.071H418.976C422.642 217.071 426.125 217.49 429.424 218.329C432.724 219.167 435.604 220.608 438.066 222.652C440.58 224.643 442.57 227.342 444.037 230.748C445.503 234.154 446.236 238.399 446.236 243.482C446.236 248.46 445.529 252.626 444.115 255.98C442.753 259.281 440.868 261.928 438.459 263.919C436.102 265.91 433.326 267.351 430.131 268.242C426.989 269.081 423.611 269.5 419.997 269.5H402.714V268.164H407.192V218.486H402.714V217.071ZM416.462 218.486V268.164C420.233 268.164 423.401 267.666 425.968 266.67C428.534 265.622 430.603 264.05 432.174 261.954C433.745 259.858 434.871 257.238 435.552 254.094C436.233 250.897 436.573 247.15 436.573 242.853C436.573 239.342 436.207 236.093 435.473 233.106C434.74 230.119 433.614 227.552 432.095 225.403C430.629 223.202 428.743 221.499 426.439 220.294C424.187 219.036 421.516 218.407 418.426 218.407L416.462 218.486ZM453.793 217.071H473.355V218.407H467.698V268.164H473.355V269.5H453.793V268.164H458.742V218.407H453.793V217.071ZM479.531 268.164C481.102 268.164 482.333 268.138 483.223 268.085C484.114 267.98 484.742 267.718 485.109 267.299C485.528 266.827 485.763 266.146 485.816 265.255C485.921 264.312 485.973 262.976 485.973 261.247V219.429L484.952 218.407H479.531V217.071H495.322L518.104 254.487V224.931C518.104 223.255 518.052 221.971 517.947 221.08C517.895 220.189 517.711 219.56 517.397 219.193C517.083 218.774 516.612 218.538 515.983 218.486C515.407 218.434 514.595 218.407 513.548 218.407H511.819V217.071H526.039V218.407H524.232C523.184 218.407 522.346 218.434 521.718 218.486C521.09 218.538 520.618 218.774 520.304 219.193C519.99 219.56 519.78 220.189 519.675 221.08C519.623 221.971 519.597 223.255 519.597 224.931V269.893H515.669L487.466 223.202V259.91C487.466 262.006 487.492 263.631 487.544 264.784C487.597 265.884 487.806 266.696 488.173 267.22C488.592 267.692 489.246 267.98 490.137 268.085C491.027 268.138 492.31 268.164 493.986 268.164V269.5H479.531V268.164ZM553.064 216.049C556.049 216.049 558.772 216.861 561.234 218.486C563.748 220.058 565.895 222.154 567.676 224.774C569.509 227.342 570.923 230.277 571.918 233.578C572.913 236.827 573.411 240.102 573.411 243.403C573.411 246.757 572.913 250.059 571.918 253.308C570.923 256.504 569.509 259.386 567.676 261.954C565.895 264.469 563.748 266.513 561.234 268.085C558.772 269.657 556.049 270.443 553.064 270.443C550.026 270.443 547.25 269.657 544.736 268.085C542.222 266.461 540.075 264.338 538.294 261.718C536.514 259.098 535.126 256.137 534.131 252.836C533.135 249.535 532.638 246.181 532.638 242.775C532.638 239.526 533.162 236.303 534.209 233.106C535.309 229.91 536.775 227.054 538.609 224.538C540.494 222.023 542.667 219.979 545.129 218.407C547.591 216.835 550.235 216.049 553.064 216.049ZM553.221 217.307C551.545 217.307 550.105 217.752 548.9 218.643C547.695 219.482 546.674 220.634 545.836 222.102C544.998 223.517 544.317 225.141 543.794 226.975C543.322 228.757 542.929 230.617 542.615 232.556C542.353 234.443 542.17 236.329 542.065 238.216C541.96 240.05 541.908 241.7 541.908 243.168C541.908 244.687 541.934 246.39 541.987 248.277C542.091 250.111 542.275 251.997 542.537 253.936C542.798 255.823 543.165 257.683 543.636 259.517C544.108 261.351 544.736 263.002 545.522 264.469C546.36 265.884 547.381 267.037 548.586 267.928C549.79 268.766 551.257 269.186 552.985 269.186C554.713 269.186 556.18 268.74 557.385 267.849C558.589 266.958 559.584 265.806 560.37 264.391C561.155 262.923 561.758 261.273 562.177 259.439C562.596 257.552 562.91 255.666 563.119 253.779C563.329 251.84 563.46 249.954 563.512 248.12C563.565 246.233 563.591 244.556 563.591 243.089C563.591 241.779 563.538 240.233 563.434 238.451C563.381 236.67 563.224 234.836 562.962 232.949C562.701 231.063 562.334 229.176 561.862 227.29C561.443 225.403 560.841 223.726 560.056 222.259C559.27 220.792 558.327 219.613 557.227 218.722C556.128 217.778 554.792 217.307 553.221 217.307Z" fill="white"/>
</g>
<g filter="url(#filter1_d)">
<path d="M304.146 280.161V284.52C304.262 284.514 304.463 284.511 304.749 284.511C305.036 284.504 305.258 284.501 305.416 284.501C305.574 284.495 305.796 284.483 306.083 284.465C306.369 284.44 306.597 284.416 306.768 284.392C306.944 284.361 307.154 284.319 307.398 284.264C307.648 284.203 307.848 284.136 308.001 284.063C308.159 283.984 308.324 283.886 308.494 283.77C308.671 283.648 308.808 283.514 308.905 283.368C309.002 283.222 309.081 283.048 309.142 282.847C309.209 282.64 309.243 282.415 309.243 282.171C309.243 281.988 309.225 281.815 309.188 281.65C309.151 281.486 309.075 281.309 308.96 281.12C308.844 280.931 308.695 280.77 308.512 280.636C308.329 280.502 308.077 280.389 307.754 280.298C307.438 280.207 307.069 280.161 306.649 280.161H304.146ZM304.146 285.726V290.588H306.567C306.786 290.588 306.968 290.588 307.115 290.588C307.267 290.582 307.483 290.563 307.763 290.533C308.043 290.496 308.281 290.451 308.476 290.396C308.677 290.335 308.899 290.246 309.142 290.131C309.386 290.009 309.581 289.866 309.727 289.701C309.879 289.537 310.007 289.327 310.111 289.071C310.214 288.809 310.266 288.513 310.266 288.184C310.266 287.374 309.952 286.741 309.325 286.284C308.698 285.826 307.855 285.598 306.795 285.598C306.679 285.598 305.796 285.641 304.146 285.726ZM302.594 278.973H307.17C307.614 278.973 308.019 279.022 308.384 279.119C308.756 279.21 309.06 279.329 309.298 279.475C309.541 279.622 309.754 279.795 309.937 279.996C310.126 280.197 310.269 280.392 310.366 280.581C310.464 280.77 310.543 280.971 310.604 281.184C310.665 281.397 310.701 281.574 310.713 281.714C310.732 281.848 310.741 281.976 310.741 282.098C310.741 282.628 310.561 283.158 310.202 283.688C309.843 284.212 309.462 284.55 309.06 284.702C309.864 284.849 310.521 285.239 311.033 285.872C311.55 286.5 311.809 287.216 311.809 288.02C311.809 288.209 311.791 288.407 311.754 288.614C311.724 288.821 311.66 289.055 311.563 289.317C311.465 289.579 311.341 289.829 311.188 290.067C311.036 290.304 310.829 290.542 310.567 290.78C310.305 291.011 310.004 291.212 309.663 291.383C309.328 291.553 308.914 291.693 308.421 291.803C307.934 291.907 307.398 291.958 306.813 291.958H302.594V278.973ZM323.269 291.958V278.973H330.877V280.344H324.821V284.584H330.374V285.955H324.821V290.588H330.877V291.958H323.269ZM345.816 278.973H347.578L352.191 291.958H350.62L349.304 288.184H343.953L342.637 291.958H341.203L345.816 278.973ZM346.629 280.49L344.418 286.823H348.83L346.629 280.49ZM362.974 278.973H364.527V287.389C364.527 287.907 364.57 288.352 364.655 288.723C364.746 289.095 364.935 289.442 365.221 289.765C365.83 290.454 366.728 290.798 367.915 290.798C368.774 290.798 369.489 290.612 370.062 290.24C370.64 289.863 371.014 289.333 371.185 288.65C371.264 288.327 371.304 287.907 371.304 287.389V278.973H372.838C372.838 280.928 372.838 282.528 372.838 283.77C372.844 285.013 372.847 285.811 372.847 286.164C372.847 286.512 372.847 286.792 372.847 287.006C372.853 287.213 372.856 287.386 372.856 287.526C372.856 287.807 372.85 288.053 372.838 288.267C372.826 288.474 372.783 288.748 372.71 289.089C372.643 289.43 372.549 289.729 372.427 289.985C372.305 290.234 372.12 290.502 371.87 290.789C371.626 291.075 371.334 291.313 370.993 291.501C370.658 291.684 370.226 291.836 369.696 291.958C369.172 292.08 368.579 292.141 367.915 292.141C367.203 292.141 366.563 292.068 365.997 291.922C365.431 291.769 364.987 291.59 364.664 291.383C364.341 291.176 364.061 290.926 363.824 290.633C363.592 290.341 363.431 290.091 363.339 289.884C363.254 289.671 363.184 289.448 363.129 289.217C363.026 288.815 362.974 288.245 362.974 287.508V278.973ZM383.219 278.973H393.447V280.344H389.111V291.958H387.559V280.344H383.219V278.973ZM402.078 278.973H403.915L407.218 284.337L410.6 278.973H412.332L407.914 285.808V291.958H406.361V285.808L402.078 278.973ZM440.658 278.854C441.657 278.854 442.731 279.028 443.883 279.375L443.382 280.791C442.286 280.475 441.336 280.316 440.531 280.316C439.63 280.316 438.867 280.508 438.238 280.892C437.617 281.27 437.307 281.76 437.307 282.363C437.307 282.698 437.408 282.997 437.61 283.259C437.808 283.521 438.073 283.734 438.403 283.898C438.732 284.063 439.106 284.227 439.525 284.392C439.948 284.55 440.374 284.696 440.804 284.83C441.242 284.964 441.672 285.135 442.091 285.342C442.514 285.549 442.888 285.778 443.217 286.027C443.546 286.271 443.808 286.591 444.01 286.987C444.212 287.383 444.313 287.831 444.313 288.331C444.313 288.678 444.257 289.025 444.149 289.372C444.037 289.713 443.857 290.055 443.599 290.396C443.344 290.731 443.026 291.026 442.649 291.282C442.271 291.538 441.796 291.745 441.216 291.904C440.643 292.062 440.004 292.141 439.297 292.141C438.593 292.141 437.939 292.068 437.344 291.922C436.753 291.776 436.091 291.556 435.354 291.264L435.881 289.756C437.404 290.323 438.608 290.606 439.491 290.606C440.415 290.606 441.167 290.42 441.747 290.048C442.331 289.677 442.622 289.18 442.622 288.559C442.622 288.145 442.492 287.788 442.23 287.49C441.975 287.185 441.639 286.942 441.227 286.759C440.816 286.57 440.363 286.396 439.865 286.238C439.364 286.073 438.867 285.899 438.365 285.717C437.875 285.528 437.419 285.312 437.007 285.068C436.599 284.824 436.263 284.495 436.001 284.081C435.747 283.667 435.619 283.179 435.619 282.619C435.619 282.119 435.735 281.641 435.975 281.184C436.218 280.727 436.551 280.328 436.977 279.987C437.404 279.64 437.939 279.366 438.578 279.165C439.214 278.958 439.91 278.854 440.658 278.854ZM454.044 278.973H464.275V280.344H459.936V291.958H458.383V280.344H454.044V278.973ZM474.638 278.973H476.19V287.389C476.19 287.907 476.235 288.352 476.317 288.723C476.411 289.095 476.598 289.442 476.886 289.765C477.492 290.454 478.39 290.798 479.58 290.798C480.436 290.798 481.155 290.612 481.727 290.24C482.303 289.863 482.677 289.333 482.849 288.65C482.928 288.327 482.969 287.907 482.969 287.389V278.973H484.503C484.503 280.928 484.503 282.528 484.503 283.77C484.506 285.013 484.51 285.811 484.51 286.164C484.51 286.512 484.51 286.792 484.51 287.006C484.518 287.213 484.521 287.386 484.521 287.526C484.521 287.807 484.514 288.053 484.503 288.267C484.492 288.474 484.447 288.748 484.376 289.089C484.308 289.43 484.211 289.729 484.091 289.985C483.968 290.234 483.784 290.502 483.534 290.789C483.291 291.075 482.999 291.313 482.658 291.501C482.322 291.684 481.892 291.836 481.36 291.958C480.837 292.08 480.242 292.141 479.58 292.141C478.865 292.141 478.229 292.068 477.66 291.922C477.096 291.769 476.65 291.59 476.329 291.383C476.003 291.176 475.726 290.926 475.487 290.633C475.255 290.341 475.094 290.091 475.004 289.884C474.918 289.671 474.847 289.448 474.795 289.217C474.69 288.815 474.638 288.245 474.638 287.508V278.973ZM498.307 280.344V290.588H500.2C500.473 290.588 500.697 290.585 500.873 290.578C501.057 290.572 501.3 290.554 501.607 290.524C501.917 290.493 502.183 290.448 502.4 290.387C502.624 290.326 502.878 290.237 503.159 290.122C503.443 290.006 503.698 289.866 503.915 289.701C504.135 289.537 504.356 289.327 504.573 289.071C504.794 288.815 504.985 288.525 505.149 288.203C505.549 287.429 505.752 286.488 505.752 285.379C505.752 284.611 505.639 283.92 505.415 283.304C505.194 282.683 504.899 282.18 504.528 281.797C504.162 281.407 503.769 281.099 503.35 280.874C502.935 280.648 502.501 280.496 502.044 280.417C501.775 280.368 501.371 280.344 500.828 280.344H498.307ZM500.776 278.973C501.614 278.973 502.377 279.058 503.065 279.229C503.754 279.393 504.33 279.628 504.794 279.932C505.261 280.237 505.665 280.581 505.998 280.965C506.335 281.349 506.593 281.778 506.777 282.253C506.964 282.723 507.102 283.185 507.184 283.642C507.27 284.099 507.315 284.574 507.315 285.068C507.315 285.634 507.27 286.18 507.184 286.704C507.102 287.228 506.952 287.761 506.739 288.303C506.53 288.845 506.264 289.333 505.935 289.765C505.613 290.192 505.19 290.578 504.674 290.926C504.158 291.267 503.571 291.52 502.912 291.684C502.572 291.769 502.19 291.833 501.771 291.876C501.348 291.919 501.004 291.943 500.727 291.949C500.454 291.955 500.069 291.958 499.568 291.958H496.754V278.973H500.776ZM519.369 278.973H520.921V291.958H519.369V278.973ZM538.855 278.836C539.712 278.836 540.513 278.988 541.257 279.293C542.005 279.591 542.653 280.015 543.191 280.563C543.741 281.111 544.171 281.797 544.482 282.619C544.792 283.435 544.946 284.334 544.946 285.315C544.946 286.643 544.68 287.825 544.153 288.861C543.629 289.89 542.896 290.688 541.96 291.255C541.029 291.815 539.97 292.095 538.792 292.095C538.01 292.095 537.265 291.958 536.551 291.684C535.84 291.404 535.197 290.999 534.624 290.469C534.052 289.939 533.596 289.247 533.255 288.395C532.915 287.536 532.743 286.57 532.743 285.497C532.743 284.492 532.9 283.572 533.21 282.738C533.521 281.903 533.947 281.203 534.49 280.636C535.032 280.063 535.676 279.622 536.424 279.311C537.172 278.994 537.984 278.836 538.855 278.836ZM538.773 280.197C538.219 280.197 537.684 280.301 537.172 280.508C536.663 280.715 536.192 281.02 535.758 281.422C535.331 281.818 534.987 282.354 534.725 283.03C534.471 283.7 534.344 284.459 534.344 285.306C534.344 286.116 534.46 286.865 534.699 287.554C534.935 288.236 535.26 288.809 535.668 289.272C536.076 289.735 536.555 290.094 537.108 290.35C537.67 290.606 538.268 290.734 538.908 290.734C539.342 290.734 539.764 290.67 540.18 290.542C540.599 290.414 540.999 290.213 541.384 289.939C541.77 289.659 542.103 289.317 542.391 288.915C542.682 288.513 542.911 288.017 543.083 287.426C543.259 286.835 543.348 286.186 543.348 285.479C543.348 284.76 543.255 284.102 543.075 283.505C542.892 282.908 542.649 282.409 542.342 282.007C542.046 281.605 541.695 281.267 541.295 280.992C540.898 280.712 540.486 280.511 540.06 280.389C539.641 280.261 539.211 280.197 538.773 280.197Z" fill="white"/>
</g>
<g filter="url(#filter2_d)">
<path d="M189.691 120.812C190.642 115.74 195.519 110.961 200.572 110.191C201.836 109.992 203.028 110.069 204.141 110.364C206.664 108.797 209.648 107.934 212.389 108.233C216.329 108.661 219.051 111.236 220.046 115.47C222.312 125.088 226.129 135.702 229.684 143.358C229.903 143.587 230.146 143.84 230.352 144.065C231.335 143.619 232.369 143.256 233.491 143.102C239.728 142.247 245.466 146.61 246.32 152.844C246.581 154.75 246.306 156.58 245.693 158.262C252.398 162.057 260.305 165.902 268.477 169.652C263.279 162.131 258.222 154.538 253.329 146.825C247.221 137.162 241.345 127.343 235.783 117.352C230.227 107.354 224.99 97.1751 220.274 86.7299C217.942 81.5041 215.723 76.2106 213.733 70.8272C211.785 65.4252 209.917 59.9862 208.558 54.38C207.175 48.7839 206.101 43.0801 205.802 37.2508L205.757 32.8023L206.106 28.5334C206.626 25.553 207.19 22.5665 208.721 19.8631C210.132 17.1826 212.336 14.6077 215.302 13.331C218.215 11.9903 221.407 11.7476 224.422 12.0097C230.471 12.6742 235.961 15.1361 240.981 18.0911C251.005 24.0811 259.593 32.1446 266.775 41.2644C270.342 45.8407 273.533 50.7478 276.129 56.0024C278.049 59.9279 279.654 64.0588 280.667 68.3746L281.974 66.546L286.179 61.2875C289.151 57.919 292.175 54.5565 295.719 51.6683C299.214 48.7603 303.031 46.0619 307.473 44.3815C311.841 42.6272 316.977 42.0272 321.743 43.4194C326.561 44.7138 330.577 47.8776 333.505 51.5803C336.474 55.2904 338.574 59.5351 339.99 63.9454C341.394 68.3633 342.166 72.9588 342.281 77.5863C342.396 82.2133 341.872 86.9088 340.42 91.4261C340.04 92.5821 339.613 93.5889 339.103 94.8343L337.619 97.7906C336.689 99.7626 335.525 101.734 334.385 103.695C333.27 105.692 332.075 107.583 330.864 109.451C329.685 111.353 328.473 113.22 327.205 115.044C322.247 122.437 316.981 129.569 311.597 136.599C310.579 137.927 309.536 139.225 308.511 140.554C315.11 135.52 322.045 130.907 329.505 127.047C335.015 124.246 340.767 121.756 346.897 120.215C353.013 118.669 359.51 118.057 365.934 118.995C372.348 119.909 378.534 122.567 383.65 126.463C384.869 127.498 386.244 128.387 387.326 129.557L390.64 132.993C391.656 134.204 392.565 135.489 393.535 136.739C394.019 137.387 394.477 137.928 394.975 138.678L396.189 140.577C397.841 143.292 399.34 146.184 400.356 149.285C401.371 152.386 401.904 155.846 401.372 159.309C400.903 162.795 399.162 166.053 396.887 168.534C394.616 171.053 391.888 172.927 389.064 174.392C383.392 177.332 377.383 178.948 371.394 180.184C365.389 181.403 359.34 182.115 353.298 182.593C341.206 183.529 329.102 183.532 317.054 182.95C309.71 182.593 302.389 182.064 295.077 181.377C311.142 188.351 323.877 194.041 324.632 196.847C326.193 202.698 289.357 199.396 269.103 186.249C255.788 177.6 247.099 168.238 242.691 162.829C241.044 164.308 238.955 165.354 236.592 165.678C230.355 166.533 224.617 162.17 223.762 155.936C223.189 151.755 224.986 147.82 228.103 145.419C227.978 145.163 227.864 144.906 227.738 144.644C219.995 136.543 210.86 121.846 207.856 116.264C206.862 114.407 205.656 113.377 204.446 112.835C203.033 113.879 201.85 115.191 201.148 116.657C200.313 118.252 199.948 120.465 201.385 122.931C202.203 121.929 203.593 121.517 204.827 122.069C206.309 122.743 206.971 124.483 206.306 125.97C205.637 127.451 203.9 128.112 202.419 127.444C201.947 127.224 201.583 126.884 201.3 126.475C198.145 123.206 197.401 119.346 199.126 115.681C199.711 114.465 200.562 113.342 201.57 112.353C201.353 112.37 201.133 112.387 200.922 112.415C196.811 113.057 192.675 117.098 191.904 121.23C191.508 122.992 191.733 125.214 193.75 127.23C194.283 126.047 195.515 125.287 196.864 125.511C198.47 125.771 199.561 127.284 199.301 128.885C199.034 130.493 197.526 131.583 195.92 131.323C195.404 131.25 194.969 130.998 194.593 130.68C190.685 128.339 188.974 124.807 189.691 120.812ZM323.065 112.208C324.332 110.424 325.537 108.603 326.714 106.773C327.911 104.946 329.108 103.12 330.161 101.287C331.252 99.4491 332.368 97.6403 333.338 95.6307L334.85 92.6898C335.163 91.8935 335.626 90.8689 335.94 89.9425C338.468 82.1544 338.142 73.2897 335.717 65.3036C334.481 61.3039 332.617 57.5074 330.101 54.3002C327.61 51.0894 324.352 48.5357 320.589 47.4995C316.865 46.3737 312.764 46.7604 308.949 48.2313C305.098 49.636 301.562 52.0621 298.283 54.7455C294.954 57.4032 292.017 60.5977 289.134 63.8049L285.036 68.8537L281.188 74.1214L278.346 78.0045L277.775 73.271C277.127 67.879 275.323 62.5808 272.917 57.5726C270.503 52.5526 267.484 47.8105 264.076 43.3552C257.234 34.4875 248.933 26.5794 239.407 20.7679C234.657 17.8863 229.474 15.5836 224.139 14.9187C221.494 14.6578 218.829 14.8671 216.509 15.8864C214.151 16.8591 212.388 18.867 211.136 21.149C209.792 23.4177 209.251 26.1477 208.739 28.7569L208.336 33.0136L208.342 37.1298C208.571 42.7286 209.536 48.3042 210.83 53.8091C212.091 59.3244 213.871 64.7302 215.735 70.0919C217.644 75.4472 219.776 80.7268 222.029 85.9442C226.575 96.3862 231.687 106.595 237.093 116.634C242.524 126.662 248.257 136.533 254.238 146.259C259.227 154.348 264.396 162.322 269.704 170.179C271.359 170.933 273.02 171.692 274.692 172.424C285.92 159.69 296.908 146.671 307.388 133.305C312.798 126.414 318.106 119.407 323.065 112.208ZM317.116 180.746C329.115 180.738 341.117 180.418 352.982 179.149C358.909 178.499 364.806 177.626 370.561 176.285C376.289 174.942 381.969 173.196 386.924 170.425C391.85 167.724 396.005 163.668 396.571 158.609C397.275 153.565 394.852 148.104 391.865 143.403L390.616 141.535C390.276 141.043 389.758 140.432 389.333 139.887C388.434 138.776 387.586 137.613 386.653 136.533L383.647 133.542C382.667 132.501 381.453 131.791 380.375 130.88C375.866 127.582 370.64 125.441 365.133 124.748C359.626 124.016 353.942 124.691 348.41 126.092C342.867 127.508 337.503 129.853 332.319 132.518C321.932 137.896 312.406 145.059 303.361 152.695C298.838 156.537 294.462 160.552 290.226 164.736C286.865 168.054 283.588 171.517 280.44 175.02C284.322 176.728 288.179 178.4 291.891 180.009C300.295 180.474 308.714 180.723 317.116 180.746ZM209.851 115.192C214.091 123.066 219.757 131.4 224.814 137.707C221.52 129.255 218.87 120.196 217.872 115.989C216.899 111.83 214.225 110.69 212.164 110.472C210.386 110.287 208.478 110.711 206.702 111.532C207.923 112.391 209.004 113.607 209.851 115.192Z" fill="#FF7CB5"/>
<path d="M337.321 147.327C351.721 154.704 347.058 168.603 335.839 169.706C324.62 170.815 295.334 167.244 295.334 167.244C295.334 167.244 322.92 139.943 337.321 147.327Z" fill="#FFCCED"/>
<path d="M279.393 158.805C279.393 158.805 258.319 136.927 252.473 112.688C246.621 88.4632 267.5 78.5234 279.702 112.242C288.945 93.02 310.856 99.1277 305.96 118.247C301.093 137.376 279.393 158.805 279.393 158.805Z" fill="#FFCCED"/>
</g>
</g>
<defs>
<filter id="filter0_d" x="0.528015" y="216.049" width="576.883" height="62.394" filterUnits="userSpaceOnUse" color-interpolation-filters="sRGB">
<feFlood flood-opacity="0" result="BackgroundImageFix"/>
<feColorMatrix in="SourceAlpha" type="matrix" values="0 0 0 0 0 0 0 0 0 0 0 0 0 0 0 0 0 0 127 0"/>
<feOffset dy="4"/>
<feGaussianBlur stdDeviation="2"/>
<feColorMatrix type="matrix" values="0 0 0 0 0 0 0 0 0 0 0 0 0 0 0 0 0 0 0.25 0"/>
<feBlend mode="normal" in2="BackgroundImageFix" result="effect1_dropShadow"/>
<feBlend mode="normal" in="SourceGraphic" in2="effect1_dropShadow" result="shape"/>
</filter>
<filter id="filter1_d" x="298.594" y="278.836" width="250.352" height="21.3054" filterUnits="userSpaceOnUse" color-interpolation-filters="sRGB">
<feFlood flood-opacity="0" result="BackgroundImageFix"/>
<feColorMatrix in="SourceAlpha" type="matrix" values="0 0 0 0 0 0 0 0 0 0 0 0 0 0 0 0 0 0 127 0"/>
<feOffset dy="4"/>
<feGaussianBlur stdDeviation="2"/>
<feColorMatrix type="matrix" values="0 0 0 0 0 0 0 0 0 0 0 0 0 0 0 0 0 0 0.25 0"/>
<feBlend mode="normal" in2="BackgroundImageFix" result="effect1_dropShadow"/>
<feBlend mode="normal" in="SourceGraphic" in2="effect1_dropShadow" result="shape"/>
</filter>
<filter id="filter2_d" x="171.143" y="-9.7458" width="238.9" height="233.355" filterUnits="userSpaceOnUse" color-interpolation-filters="sRGB">
<feFlood flood-opacity="0" result="BackgroundImageFix"/>
<feColorMatrix in="SourceAlpha" type="matrix" values="0 0 0 0 0 0 0 0 0 0 0 0 0 0 0 0 0 0 127 0"/>
<feOffset dy="4"/>
<feGaussianBlur stdDeviation="2"/>
<feColorMatrix type="matrix" values="0 0 0 0 0 0 0 0 0 0 0 0 0 0 0 0 0 0 0.25 0"/>
<feBlend mode="normal" in2="BackgroundImageFix" result="effect1_dropShadow"/>
<feBlend mode="normal" in="SourceGraphic" in2="effect1_dropShadow" result="shape"/>
</filter>
<linearGradient id="paint0_linear" x1="294.5" y1="-37" x2="294.5" y2="349" gradientUnits="userSpaceOnUse">
<stop stop-color="#C4C4C4" stop-opacity="0"/>
<stop offset="0.579613" stop-color="#FF7CB5" stop-opacity="0.5"/>
</linearGradient>
<clipPath id="clip0">
<rect width="576.111" height="299.444" fill="white" transform="translate(0.666672)"/>
</clipPath>
</defs>
</svg>
